<svg width="200" height="140" viewBox="0 0 200 140" fill="none" xmlns="http://www.w3.org/2000/svg">
<g clip-path="url(#clip0_25_122)">
<path d="M36.4053 70.4009L21.3496 79.4898L37.971 73.4616L36.4053 70.4009Z" fill="white"/>
<path d="M40.5033 78.4114L39.3786 76.2123L28.2417 78.4114H40.5033Z" fill="white"/>
<path d="M27.4561 54.4948L12.2514 84.2199C12.1317 84.4397 12.2135 84.7133 12.434 84.8312C12.602 84.9214 12.8094 84.8981 12.9511 84.7715L34.5311 66.7245L28.2696 54.4992C28.1469 54.2751 27.8665 54.1921 27.6416 54.3144C27.5627 54.3566 27.4984 54.4206 27.4561 54.4992V54.4948Z" fill="white"/>
<path d="M43.4774 84.2199L41.7101 80.7779L35.0776 79.7591C37.2627 80.6105 39.287 81.8258 41.066 83.351L42.772 84.7773C42.9619 84.9389 43.2481 84.9156 43.4103 84.7264C43.53 84.5867 43.5519 84.3887 43.4672 84.2257L43.4774 84.2199Z" fill="white"/>
<path d="M72.8715 68.5205C70.8617 68.0344 69.109 67.6167 69.109 66.0784C69.109 64.6826 70.4235 63.8458 72.6144 63.8458C74.0545 63.8603 75.4611 64.2809 76.6719 65.0596L76.818 65.1571L77.6549 63.1486L77.5541 63.0817C76.317 62.223 74.4737 61.7122 72.6217 61.7122C68.2546 61.7122 66.699 64.0044 66.699 66.154C66.699 69.3559 69.5647 70.0429 72.0944 70.6556C74.11 71.1417 75.8335 71.5594 75.8335 73.0861C75.8335 74.4615 74.5307 75.2517 72.2566 75.2517C70.4425 75.2517 68.5277 74.5823 67.3811 73.5547L67.2351 73.4208L66.3047 75.3725L66.385 75.4497C67.6513 76.614 69.9561 77.3781 72.258 77.3781C76.6777 77.3781 78.2464 74.9941 78.2464 72.9551C78.2391 69.8187 75.3895 69.1347 72.8715 68.5205Z" fill="white"/>
<path d="M90.4823 63.9375C92.0481 63.8938 93.5554 64.5255 94.6187 65.6709L94.7224 65.7815L96.329 64.2256L96.2312 64.1179C94.8582 62.5752 92.7857 61.7282 90.3888 61.7282C85.6858 61.7282 82.249 65.0217 82.249 69.5611C82.249 74.1005 85.6653 77.3941 90.3684 77.3941C92.7637 77.3941 94.8422 76.5369 96.2297 74.984L96.3276 74.8763L94.7209 73.3161L94.6172 73.4267C93.5525 74.5735 92.0481 75.2139 90.4809 75.1848C87.1215 75.1848 84.7101 72.8183 84.7101 69.5611C84.7101 66.304 87.1376 63.9375 90.4823 63.9375Z" fill="white"/>
<path d="M128.629 72.8285L120.11 62.2739C119.918 62.0382 119.63 61.8999 119.327 61.8984H117.821V77.2194H120.275V66.2937L128.794 76.8483C128.985 77.0855 129.275 77.2209 129.58 77.2194H131.084V61.8984H128.629V72.8285Z" fill="white"/>
<path d="M142.893 68.5205C140.878 68.0344 139.137 67.6167 139.137 66.0827C139.137 64.687 140.451 63.8501 142.642 63.8501C144.081 63.8661 145.486 64.2853 146.697 65.0596L146.843 65.1571L147.667 63.1486L147.569 63.0817C146.333 62.223 144.488 61.7122 142.638 61.7122C138.271 61.7122 136.715 64.0044 136.715 66.154C136.715 69.3559 139.581 70.0429 142.106 70.6556C144.122 71.1417 145.845 71.5594 145.845 73.0861C145.845 74.4615 144.542 75.2517 142.271 75.2517C140.457 75.2517 138.542 74.5823 137.397 73.5547L137.251 73.4179L136.338 75.3929L136.419 75.47C137.685 76.6344 139.993 77.3984 142.295 77.3984C146.711 77.3984 148.283 75.0145 148.283 72.9769C148.273 69.8187 145.413 69.1347 142.893 68.5205Z" fill="white"/>
<path d="M163.858 70.5057C163.858 73.6086 162.473 75.1921 159.743 75.1921C157.013 75.1921 155.653 73.6144 155.653 70.5057V61.8985H153.195V70.6017C153.195 74.9243 155.573 77.4043 159.723 77.4043C163.872 77.4043 166.237 74.9141 166.237 70.5901V61.8868H164.86C164.303 61.8868 163.852 62.3365 163.852 62.891L163.858 70.5057Z" fill="white"/>
<path d="M177.63 68.5205C175.615 68.0344 173.872 67.6167 173.872 66.0827C173.872 64.687 175.187 63.8501 177.386 63.8501C178.824 63.8662 180.226 64.2853 181.435 65.0596L181.581 65.1571L182.405 63.1486L182.304 63.0817C181.067 62.2303 179.227 61.7224 177.376 61.7224C173.009 61.7224 171.453 64.0146 171.453 66.1642C171.453 69.3661 174.315 70.0531 176.844 70.6658C178.86 71.1519 180.584 71.5696 180.584 73.0963C180.584 74.4716 179.281 75.2619 177.009 75.2619C175.193 75.2619 173.281 74.5924 172.136 73.5649L171.989 73.4281L171.058 75.3754L171.138 75.4526C172.404 76.6169 174.709 77.381 177.014 77.381C181.431 77.381 183.002 74.997 183.002 72.958C182.999 69.8187 180.144 69.1347 177.63 68.5205Z" fill="white"/>
<path d="M111.611 64.0699L112.72 61.9043H101.377V77.2194H112.623V75.0538H103.834V70.5057H107.703C108.082 70.5057 108.429 70.2932 108.6 69.9555L109.406 68.3822H103.834V64.0699H111.611Z" fill="white"/>
<path d="M60.6119 71.4488L56.5807 63.5358L55.754 61.9217C55.6664 61.7369 55.4459 61.6568 55.2604 61.7442C55.1815 61.7806 55.1187 61.8431 55.0822 61.9217L54.2628 63.5329L50.2141 71.4459L49.1917 73.4543L47.2695 77.2092H49.1873C49.5714 77.2107 49.9205 76.9938 50.0899 76.6504L51.6659 73.4485H59.1601L60.739 76.6504C60.9084 76.9938 61.259 77.2107 61.6431 77.2092H63.5652L61.6431 73.4543L60.6119 71.4488ZM52.6605 71.4488L55.4152 65.8761L58.1698 71.4633L52.6605 71.4488Z" fill="white"/>
<path d="M184.555 75.7276C184.564 74.7947 185.33 74.0452 186.267 74.0539C186.937 74.0598 187.542 74.46 187.808 75.0742C187.987 75.4919 187.987 75.9663 187.808 76.384C187.429 77.2456 186.42 77.64 185.555 77.2616C185.37 77.1801 185.199 77.0666 185.053 76.9269C184.9 76.7741 184.777 76.5951 184.689 76.3971C184.597 76.1861 184.552 75.9576 184.555 75.7276ZM184.824 75.7276C184.824 76.1046 184.974 76.4655 185.241 76.7319C185.368 76.8629 185.522 76.9662 185.691 77.0361C186.048 77.1874 186.449 77.1874 186.806 77.0361C186.975 76.9662 187.128 76.8629 187.257 76.7319C187.664 76.3215 187.786 75.7073 187.562 75.1746C187.492 75.0058 187.388 74.8515 187.257 74.7234C187.125 74.5953 186.974 74.492 186.806 74.4178C186.449 74.2708 186.048 74.2708 185.691 74.4178C185.523 74.492 185.371 74.5953 185.241 74.7234C185.11 74.8515 185.005 75.0058 184.935 75.1746C184.86 75.3507 184.822 75.5384 184.824 75.7276ZM185.586 74.7729H186.258C186.347 74.7729 186.435 74.7831 186.521 74.8035C186.601 74.8224 186.677 74.8544 186.746 74.8995C186.813 74.9417 186.867 75.0014 186.903 75.0713C187.001 75.2634 186.979 75.4962 186.846 75.6665C186.756 75.7582 186.638 75.8193 186.511 75.8412L187.022 76.6678H186.604L186.166 75.8776H185.92V76.6678H185.585L185.586 74.7729ZM186.205 75.6025C186.302 75.6025 186.398 75.5836 186.487 75.5457C186.575 75.5079 186.629 75.4162 186.619 75.3216C186.629 75.2343 186.579 75.1499 186.497 75.1149C186.417 75.0815 186.329 75.064 186.242 75.064H185.929V75.6025H186.205Z" fill="white"/>
</g>
<defs>
<clipPath id="clip0_25_122">
<rect width="176" height="31" fill="white" transform="translate(12 54)"/>
</clipPath>
</defs>
</svg>
