<svg width="215" height="30" viewBox="0 0 215 30" fill="none" xmlns="http://www.w3.org/2000/svg">
<path d="M8.064 3.132H5.264V11H2.87V3.132H0.07V1.088H8.064V3.132ZM20.4649 6.002C20.4649 9.138 18.1689 11.266 15.0609 11.266C11.9669 11.266 9.67094 9.138 9.67094 6.002C9.67094 2.824 11.9669 0.821999 15.0609 0.821999C18.1689 0.821999 20.4649 2.824 20.4649 6.002ZM17.9029 6.002C17.9029 4.266 16.7409 2.978 15.0609 2.978C13.3809 2.978 12.2329 4.266 12.2329 6.002C12.2329 7.794 13.3949 9.082 15.0609 9.082C16.7269 9.082 17.9029 7.794 17.9029 6.002ZM30.9591 4.14C30.9591 6.436 29.0971 7.262 27.0251 7.262H25.8351V11H23.4411V1.088H27.0811C29.2511 1.088 30.9591 1.872 30.9591 4.14ZM28.5651 4.154C28.5651 3.202 27.7391 3.02 26.8851 3.02H25.8351V5.358H26.8431C27.7391 5.358 28.5651 5.092 28.5651 4.154ZM47.7122 11H44.9962L41.0062 4.518H40.9642L41.0202 11H38.6962V1.088H41.4262L45.4022 7.556H45.4442L45.3882 1.088H47.7122V11ZM61.4888 6.002C61.4888 9.138 59.1928 11.266 56.0848 11.266C52.9908 11.266 50.6948 9.138 50.6948 6.002C50.6948 2.824 52.9908 0.821999 56.0848 0.821999C59.1928 0.821999 61.4888 2.824 61.4888 6.002ZM58.9268 6.002C58.9268 4.266 57.7648 2.978 56.0848 2.978C54.4048 2.978 53.2568 4.266 53.2568 6.002C53.2568 7.794 54.4188 9.082 56.0848 9.082C57.7508 9.082 58.9268 7.794 58.9268 6.002ZM72.571 11H69.771L67.629 7.066H66.817V11H64.465V1.088H68.245C70.149 1.088 72.039 1.816 72.039 4.084C72.039 5.414 71.255 6.366 69.981 6.758L72.571 11ZM69.673 4.126C69.673 3.202 68.791 3.02 68.077 3.02H66.803V5.33H67.937C68.707 5.33 69.673 5.134 69.673 4.126ZM82.0261 3.132H79.2261V11H76.8321V3.132H74.0321V1.088H82.0261V3.132ZM93.1709 11H90.7769V6.856H86.9129V11H84.5189V1.088H86.9129V4.84H90.7769V1.088H93.1709V11ZM110.644 11H107.984L107.214 9.054H103.378L102.65 11H100.046L104.204 1.088H106.528L110.644 11ZM106.556 7.136L105.324 3.734L104.064 7.136H106.556ZM124.189 11H121.851L121.907 3.986H121.865L119.289 11H117.609L115.103 3.986H115.061L115.117 11H112.863V1.088H116.265L118.519 7.444H118.575L120.731 1.088H124.189V11ZM134.551 11H127.635V1.088H134.299V3.118H129.945V4.98H134.061V6.898H129.945V8.956H134.551V11ZM145.644 11H142.844L140.702 7.066H139.89V11H137.538V1.088H141.318C143.222 1.088 145.112 1.816 145.112 4.084C145.112 5.414 144.328 6.366 143.054 6.758L145.644 11ZM142.746 4.126C142.746 3.202 141.864 3.02 141.15 3.02H139.876V5.33H141.01C141.78 5.33 142.746 5.134 142.746 4.126ZM150.63 11H148.222V1.088H150.63V11ZM162.801 9.628C161.933 10.636 160.617 11.266 158.951 11.266C155.899 11.266 153.617 9.138 153.617 6.03C153.617 2.852 155.969 0.821999 158.993 0.821999C160.379 0.821999 161.877 1.326 162.703 2.278L161.079 3.902C160.631 3.286 159.833 2.992 159.077 2.992C157.411 2.992 156.221 4.28 156.221 6.03C156.221 7.836 157.383 9.068 159.035 9.068C159.973 9.068 160.715 8.648 161.135 8.06L162.801 9.628ZM174.443 11H171.783L171.013 9.054H167.177L166.449 11H163.845L168.003 1.088H170.327L174.443 11ZM170.355 7.136L169.123 3.734L167.863 7.136H170.355ZM185.678 11H182.962L178.972 4.518H178.93L178.986 11H176.662V1.088H179.392L183.368 7.556H183.41L183.354 1.088H185.678V11ZM7.546 21.132H3.388V23.176H7.224V25.15H3.388V29H1.022V19.088H7.546V21.132ZM12.8964 29H10.4884V19.088H12.8964V29ZM25.3614 29H22.6454L18.6554 22.518H18.6134L18.6694 29H16.3454V19.088H19.0754L23.0514 25.556H23.0934L23.0374 19.088H25.3614V29ZM38.186 29H35.526L34.756 27.054H30.92L30.192 29H27.588L31.746 19.088H34.07L38.186 29ZM34.098 25.136L32.866 21.734L31.606 25.136H34.098ZM49.4212 29H46.7052L42.7152 22.518H42.6732L42.7292 29H40.4052V19.088H43.1352L47.1112 25.556H47.1532L47.0972 19.088H49.4212V29ZM61.5878 27.628C60.7198 28.636 59.4038 29.266 57.7378 29.266C54.6858 29.266 52.4038 27.138 52.4038 24.03C52.4038 20.852 54.7558 18.822 57.7798 18.822C59.1658 18.822 60.6638 19.326 61.4898 20.278L59.8658 21.902C59.4178 21.286 58.6198 20.992 57.8638 20.992C56.1978 20.992 55.0078 22.28 55.0078 24.03C55.0078 25.836 56.1698 27.068 57.8218 27.068C58.7598 27.068 59.5018 26.648 59.9218 26.06L61.5878 27.628ZM66.4218 29H64.0138V19.088H66.4218V29ZM79.2508 29H76.5908L75.8208 27.054H71.9848L71.2568 29H68.6528L72.8108 19.088H75.1348L79.2508 29ZM75.1628 25.136L73.9308 21.734L72.6708 25.136H75.1628ZM87.714 29H81.47V19.088H83.878V26.914H87.714V29ZM101.559 20.054L100.033 21.664C99.6274 21.146 98.8854 20.81 98.2694 20.81C97.6534 20.81 96.8834 21.02 96.8834 21.804C96.8834 22.462 97.4714 22.672 98.4094 22.966C99.7534 23.4 101.489 23.974 101.489 25.948C101.489 28.23 99.6554 29.252 97.6954 29.252C96.2814 29.252 94.8534 28.734 93.9854 27.824L95.5534 26.228C96.0294 26.83 96.9114 27.278 97.6954 27.278C98.4234 27.278 99.0674 26.998 99.0674 26.2C99.0674 25.444 98.3114 25.206 97.0094 24.786C95.7494 24.38 94.4754 23.736 94.4754 21.944C94.4754 19.746 96.4634 18.836 98.3114 18.836C99.4314 18.836 100.691 19.256 101.559 20.054ZM111.385 29H104.469V19.088H111.133V21.118H106.779V22.98H110.895V24.898H106.779V26.956H111.385V29ZM122.479 29H119.679L117.537 25.066H116.725V29H114.373V19.088H118.153C120.057 19.088 121.947 19.816 121.947 22.084C121.947 23.414 121.163 24.366 119.889 24.758L122.479 29ZM119.581 22.126C119.581 21.202 118.699 21.02 117.985 21.02H116.711V23.33H117.845C118.615 23.33 119.581 23.134 119.581 22.126ZM133.628 19.088L129.806 29H127.412L123.66 19.088H126.348L128.644 26.116H128.7L130.982 19.088H133.628ZM138.243 29H135.835V19.088H138.243V29ZM150.414 27.628C149.546 28.636 148.23 29.266 146.564 29.266C143.512 29.266 141.23 27.138 141.23 24.03C141.23 20.852 143.582 18.822 146.606 18.822C147.992 18.822 149.49 19.326 150.316 20.278L148.692 21.902C148.244 21.286 147.446 20.992 146.69 20.992C145.024 20.992 143.834 22.28 143.834 24.03C143.834 25.836 144.996 27.068 146.648 27.068C147.586 27.068 148.328 26.648 148.748 26.06L150.414 27.628ZM159.756 29H152.84V19.088H159.504V21.118H155.15V22.98H159.266V24.898H155.15V26.956H159.756V29ZM169.506 20.054L167.98 21.664C167.574 21.146 166.832 20.81 166.216 20.81C165.6 20.81 164.83 21.02 164.83 21.804C164.83 22.462 165.418 22.672 166.356 22.966C167.7 23.4 169.436 23.974 169.436 25.948C169.436 28.23 167.602 29.252 165.642 29.252C164.228 29.252 162.8 28.734 161.932 27.824L163.5 26.228C163.976 26.83 164.858 27.278 165.642 27.278C166.37 27.278 167.014 26.998 167.014 26.2C167.014 25.444 166.258 25.206 164.956 24.786C163.696 24.38 162.422 23.736 162.422 21.944C162.422 19.746 164.41 18.836 166.258 18.836C167.378 18.836 168.638 19.256 169.506 20.054ZM183.839 21.132H179.681V23.176H183.517V25.15H179.681V29H177.315V19.088H183.839V21.132ZM189.19 29H186.782V19.088H189.19V29ZM200.745 29H197.945L195.803 25.066H194.991V29H192.639V19.088H196.419C198.323 19.088 200.213 19.816 200.213 22.084C200.213 23.414 199.429 24.366 198.155 24.758L200.745 29ZM197.847 22.126C197.847 21.202 196.965 21.02 196.251 21.02H194.977V23.33H196.111C196.881 23.33 197.847 23.134 197.847 22.126ZM214.648 29H212.31L212.366 21.986H212.324L209.748 29H208.068L205.562 21.986H205.52L205.576 29H203.322V19.088H206.724L208.978 25.444H209.034L211.19 19.088H214.648V29Z" fill="#0576DB"/>
</svg>
