<svg width="92" height="60" viewBox="0 0 92 60" fill="none" xmlns="http://www.w3.org/2000/svg">
<path fill-rule="evenodd" clip-rule="evenodd" d="M57.71 57.949C59.2034 57.4299 60.6672 56.7912 62.0321 56.0173C63.0122 55.5013 63.9899 54.9302 64.9411 54.3194C72.6242 49.3773 78.453 43.0692 82.709 38.4644C83.943 37.1294 85.0088 35.977 85.9764 35.0065C87.6139 33.3622 89.9371 31.5424 89.9604 31.5245L92 29.9284L89.9604 28.3339C89.9371 28.316 87.6147 26.4954 85.9779 24.8527C85.4731 24.3453 84.9387 23.7889 84.3723 23.182L84.5374 22.4633L87.5945 9.45069L86.1275 8.74513C76.8832 4.31281 66.0778 1.69724 56.9262 1.65062L56.8958 1.64518C53.0208 0.422094 49.0142 -0.0317059 46.0008 0.00170742C41.6046 -0.04647 35.0948 0.937281 29.9686 3.84657C28.9855 4.36332 28.0078 4.93212 27.0596 5.54211C19.3735 10.4842 13.5423 16.7939 9.28476 21.4002C8.05308 22.7329 6.99045 23.8837 6.02364 24.8527C4.38607 26.4954 2.06371 28.316 2.04034 28.3339L0 29.9276L2.03956 31.5229C2.06371 31.5424 4.38607 33.3622 6.02131 35.0049C6.52535 35.5092 7.05511 36.064 7.61992 36.6655L7.48047 37.3097L6.80036 40.198L4.42113 50.3238L5.89198 51.0286C14.46 55.14 24.3766 57.6887 33.0693 58.0757L34.9787 58.1767C38.8919 59.4347 42.9547 59.8963 45.9984 59.8613C49.1754 59.8971 53.4563 59.3936 57.5214 58.0127L57.71 57.949Z" fill="#FEFDFB"/>
<path fill-rule="evenodd" clip-rule="evenodd" d="M84.7525 26.3422C80.2699 21.8423 73.5942 13.3957 63.9113 7.1715C62.9959 6.58482 62.0572 6.03622 61.0896 5.52803C56.5134 2.93033 50.3597 1.86577 45.9455 1.91783C41.5291 1.86577 35.373 2.93033 30.8 5.52803C29.8363 6.03622 28.8913 6.58482 27.9782 7.1715C18.3008 13.3957 11.6189 21.8423 7.1401 26.3422C5.3771 28.11 2.93555 30.0146 2.93555 30.0146C2.93555 30.0146 5.3771 31.9207 7.13776 33.6893C11.6189 38.1869 18.2969 46.6334 27.9782 52.8569C28.8913 53.4451 29.8363 53.9945 30.8 54.5027C35.373 57.1004 41.5244 58.1649 45.9455 58.1121C50.3597 58.1649 56.5134 57.1004 61.0896 54.5027C62.0572 53.9945 62.9959 53.4451 63.9097 52.8569C73.5887 46.6334 80.2699 38.1869 84.7502 33.6893C86.514 31.9207 88.954 30.0146 88.954 30.0146C88.954 30.0146 86.5179 28.11 84.7525 26.3422Z" fill="#EF3F42"/>
<path fill-rule="evenodd" clip-rule="evenodd" d="M28.2932 39.019C28.9476 39.1301 29.5958 39.2047 30.8812 39.2047C37.2181 39.2047 38.8471 24.4586 38.6367 22.1561C38.3461 18.9982 36.8418 18.4783 35.2564 18.4783H33.1717L28.2932 39.019ZM21.6611 15.8418H34.3005C42.4977 15.8418 48.149 18.1069 47.2717 26.0002C46.3922 33.8967 42.6559 41.8421 32.1371 41.8421H17.3662L17.8788 39.5016L19.1526 39.2793L24.1284 18.4053L21.1438 18.1434L21.6611 15.8418Z" fill="#FEFEFE"/>
<path fill-rule="evenodd" clip-rule="evenodd" d="M62.3578 36.1025C61.1035 35.2408 59.5454 34.8476 58.0192 34.752L57.4155 37.3505C58.7383 37.5308 59.3 38.2177 59.8025 39.2224C59.3553 39.52 58.9004 39.6684 58.387 39.6684C55.9462 39.6684 54.9272 38.3303 54.7745 36.5859C54.5283 33.7628 57.1662 17.827 62.3461 17.827C64.7884 17.827 65.8012 19.1651 65.9539 20.9111C66.1276 22.8786 64.8874 31.2366 62.3578 36.1025ZM72.0812 41.7999C71.38 42.0975 70.6352 42.4309 69.8235 42.4309C67.7239 42.4309 67.7239 41.674 66.7493 40.3002C71.9768 37.4025 75.2059 31.5055 75.2059 24.7226C75.2059 18.5714 70.4046 15.1904 62.4038 15.1904C53.4852 15.1904 46.0989 23.3806 45.8683 31.5055C45.672 38.3933 49.0671 42.413 58.7874 42.3065C59.5135 42.2988 60.2816 42.2685 60.9999 42.1566C62.1965 45.0542 63.1369 46.2952 67.0757 46.2952C68.6175 46.2952 70.1491 45.9082 71.4229 45.2042L72.1154 42.2094L72.0812 41.7999Z" fill="#FEFEFE"/>
<path fill-rule="evenodd" clip-rule="evenodd" d="M83.5964 19.0033C73.9471 12.3812 58.7376 7.48732 46.381 7.76395C41.1995 7.87895 36.2946 8.70185 31.8906 10.085C38.0911 6.17409 46.5228 3.67819 55.8348 3.47072C65.3806 3.25859 76.5733 6.06453 85.6188 10.4028L83.5964 19.0033Z" fill="#FAAB53"/>
<path fill-rule="evenodd" clip-rule="evenodd" d="M8.29391 41.0278C17.9433 47.6483 33.1512 52.5438 45.5093 52.2664C50.69 52.1506 55.5949 51.3285 59.9989 49.9453C53.7992 53.8547 45.3667 56.3514 36.0547 56.5596C26.509 56.771 15.3171 53.9658 6.27148 49.6267L8.29391 41.0278Z" fill="#007AC2"/>
<path fill-rule="evenodd" clip-rule="evenodd" d="M74.2889 38.7771C74.5514 38.7771 74.7906 38.7585 74.7906 38.4298C74.7906 38.1625 74.5607 38.1151 74.3379 38.1151H73.9134V38.7771H74.2889ZM73.9235 39.9947H73.615V37.8524H74.3971C74.8841 37.8524 75.1232 38.0412 75.1232 38.4593C75.1232 38.8447 74.8895 39.0071 74.5904 39.0491L75.1715 39.9947H74.8264L74.2818 39.0638H73.9235V39.9947ZM74.3005 40.4672C75.11 40.4672 75.7488 39.8083 75.7488 38.9178C75.7488 38.0412 75.11 37.3745 74.3005 37.3745C73.4864 37.3745 72.8461 38.0412 72.8461 38.9178C72.8461 39.8083 73.4864 40.4672 74.3005 40.4672ZM72.4854 38.9178C72.4854 37.8524 73.3182 37.0684 74.3005 37.0684C75.2767 37.0684 76.1079 37.8524 76.1079 38.9178C76.1079 39.9947 75.2767 40.7741 74.3005 40.7741C73.3182 40.7741 72.4854 39.9947 72.4854 38.9178Z" fill="#FEFEFE"/>
</svg>
