<svg width="200" height="140" viewBox="0 0 200 140" fill="none" xmlns="http://www.w3.org/2000/svg">
<g clip-path="url(#clip0_25_156)">
<mask id="mask0_25_156" style="mask-type:luminance" maskUnits="userSpaceOnUse" x="7" y="50" width="36" height="35">
<path d="M11.4793 72.0412C10.3943 71.6524 9.30385 71.3715 8.22319 71.1862C8.55004 72.9365 9.15375 74.6654 10.0623 76.3091C12.716 81.1103 17.3444 84.1251 22.3751 84.9097C22.1921 79.6502 17.9299 74.3538 11.4793 72.0412ZM12.0937 66.7074C20.609 65.9646 27.1631 59.3295 27.9531 51.2619C24.2433 50.6052 20.2934 51.1642 16.7393 53.1286C11.5751 55.9831 8.47344 61.1214 7.99597 66.5887C9.32453 66.7811 10.6963 66.8292 12.0937 66.7074ZM25.0085 71.9939C24.7907 76.73 26.2851 81.1474 28.943 84.6505C30.411 84.3001 31.8572 83.7523 33.2426 82.9866C41.4874 78.4295 44.4768 68.0511 39.9196 59.8061C38.9378 58.0299 37.6848 56.4993 36.2424 55.2338C29.8878 58.1997 25.3529 64.5029 25.0085 71.9939Z" fill="white"/>
</mask>
<g mask="url(#mask0_25_156)">
<path d="M11.4793 72.0412C10.3943 71.6524 9.30385 71.3715 8.22319 71.1862C8.55004 72.9365 9.15375 74.6654 10.0623 76.3091C12.716 81.1103 17.3444 84.1251 22.3751 84.9097C22.1921 79.6502 17.9299 74.3538 11.4793 72.0412ZM12.0937 66.7074C20.609 65.9646 27.1631 59.3295 27.9531 51.2619C24.2433 50.6052 20.2934 51.1642 16.7393 53.1286C11.5751 55.9831 8.47344 61.1214 7.99597 66.5887C9.32453 66.7811 10.6963 66.8292 12.0937 66.7074ZM25.0085 71.9939C24.7907 76.73 26.2851 81.1474 28.943 84.6505C30.411 84.3001 31.8572 83.7523 33.2426 82.9866C41.4874 78.4295 44.4768 68.0511 39.9196 59.8061C38.9378 58.0299 37.6848 56.4993 36.2424 55.2338C29.8878 58.1997 25.3529 64.5029 25.0085 71.9939Z" fill="white"/>
</g>
<path d="M98.3278 81.8946H103.246V53.4759H98.3278V81.8946Z" fill="white"/>
<path d="M118.086 61.2628C115.638 61.2628 113.295 62.1868 111.783 64.6521V61.6948H107.356V81.8947H112.091V71.1952C112.091 70.3582 112.165 69.5572 112.313 68.971C112.858 66.7922 114.41 65.5268 116.695 65.5268C119.056 65.5268 120.417 66.7087 120.854 69.0713C120.959 69.6362 121.01 70.4416 121.01 71.1912V81.8947H125.746V69.9415C125.746 68.6001 125.612 67.3879 125.299 66.3531C124.272 62.9203 121.528 61.2628 118.086 61.2628Z" fill="white"/>
<path d="M141.565 77.2678C141.052 77.389 140.195 77.434 139.64 77.434H134.197V69.4212H140.052C140.578 69.4212 141.178 69.4739 141.602 69.569C143.904 70.0796 144.786 71.8958 144.786 73.4219C144.786 75.4406 143.489 76.8148 141.565 77.2678ZM134.197 57.9369H138.563C139.559 57.9369 140.617 58.0743 141.297 58.3877C142.482 58.9336 143.121 59.954 143.121 61.4876C143.121 63.0287 142.44 64.0819 141.232 64.6246C140.628 64.896 139.745 65.0395 138.725 65.0395H137.792H134.197V57.9369ZM145.255 66.7059C147.178 65.2296 147.986 63.5361 147.986 61.1168C147.986 57.4962 145.743 54.7809 142.323 53.8561C141.435 53.6169 139.993 53.4765 138.314 53.4765H129.331V81.8946H139.393C141.353 81.8946 142.668 81.7078 143.956 81.2537C147.327 80.0636 149.652 77.4459 149.652 73.6049C149.652 70.3979 148.127 68.1141 145.255 66.7059Z" fill="white"/>
<path d="M186.92 61.6945L181.862 76.1252L176.73 61.6945H171.599L179.622 81.8946H183.992L191.999 61.6945H186.92Z" fill="white"/>
<path d="M156.105 70.2058C156.444 67.2988 158.802 65.3877 161.666 65.3877C164.675 65.3877 166.962 67.3795 167.299 70.2058H156.105ZM161.622 61.2631C155.873 61.2631 151.405 65.8901 151.405 71.9363C151.405 77.5173 155.804 82.3262 161.824 82.3262C166.221 82.3262 169.626 79.7964 171.366 75.6983H166.55C165.465 77.3208 164.011 78.2014 161.904 78.2014C158.766 78.2014 156.713 76.3554 156.09 73.515H171.855C171.973 72.843 172.006 72.2795 171.998 71.5965C171.947 66.1673 167.784 61.2631 161.622 61.2631Z" fill="white"/>
<path d="M85.8498 77.4305H79.997V69.262C80.7389 69.2308 81.4669 69.2141 82.1705 69.2225C87.4929 69.2914 90.5896 70.8405 90.5897 73.5974C90.5897 76.0786 88.3713 77.4305 85.8498 77.4305ZM79.997 57.9369H84.171C85.1245 57.9369 85.9237 58.0454 86.4713 58.224C88.0569 58.7409 88.9216 59.9352 88.9216 61.8611C88.9216 63.644 88.024 64.8158 86.5994 65.3547C85.2434 65.1242 83.7273 64.9978 82.0359 64.9963C81.4016 64.9958 80.7037 65.0058 79.997 65.0281V57.9369ZM53.648 75.44L59.9619 59.0965L63.635 68.8952C59.835 70.6379 56.4473 72.8741 53.648 75.44ZM91.0137 66.7457C93.0621 65.2472 93.787 63.0063 93.787 61.1168C93.787 57.4962 91.5429 54.7809 88.1237 53.8558C87.236 53.6169 85.7943 53.4765 84.1149 53.4765H75.1319V65.4677C72.6243 65.8474 70.1987 66.4406 67.8832 67.2149L62.2761 53.4756H62.1333H57.8548H57.7634L46.1653 81.8946H50.8976C54.9867 77.5711 59.8687 74.4687 64.9528 72.4105L68.508 81.8946H73.8741L69.3826 70.8887C71.3051 70.3413 73.2307 69.9343 75.1319 69.6572V81.8946L77.5738 81.8968L77.573 81.9016H86.1486C92.2085 81.9016 95.4594 78.3465 95.4594 73.6066C95.4594 70.732 94.0358 68.2887 91.0137 66.7457Z" fill="white"/>
</g>
<defs>
<clipPath id="clip0_25_156">
<rect width="184" height="33.9097" fill="white" transform="translate(8 51)"/>
</clipPath>
</defs>
</svg>
