<svg width="200" height="140" viewBox="0 0 200 140" fill="none" xmlns="http://www.w3.org/2000/svg">
<path d="M24 95.5161H53.4072V99.7307H24V95.5161Z" fill="white"/>
<path d="M24 87.4314H53.4072V91.661H24V87.4314Z" fill="white"/>
<path d="M32.3894 79.362H45.0032V83.5917H32.3894V79.362Z" fill="white"/>
<path d="M32.3894 71.2931H45.0032V75.5228H32.3894V71.2931Z" fill="white"/>
<path d="M32.3894 63.2237H45.0032V67.4533H32.3894V63.2237Z" fill="white"/>
<path d="M32.3894 55.1392H45.0032V59.3688H32.3894V55.1392Z" fill="white"/>
<path d="M53.4072 47.0697H24V51.2993H53.4072V47.0697Z" fill="white"/>
<path d="M53.4072 39H24V43.2297H53.4072V39Z" fill="white"/>
<path d="M57.6018 91.6608H102.829C103.593 90.356 104.162 88.931 104.507 87.4312H57.6018V91.6608Z" fill="white"/>
<path d="M99.3085 71.2933H66.0061V75.5229H102.829C101.87 73.903 100.687 72.4783 99.3085 71.2933Z" fill="white"/>
<path d="M66.0061 63.2238V67.4535H99.3085C100.717 66.2686 101.9 64.8436 102.829 63.2238H66.0061Z" fill="white"/>
<path d="M102.829 47.0699H57.6018V51.2995H104.507C104.117 49.7996 103.548 48.3749 102.829 47.0699Z" fill="white"/>
<path d="M88.9266 39.0002H57.6018V43.2298H99.7278C96.9114 40.62 93.0914 39.0002 88.9266 39.0002Z" fill="white"/>
<path d="M78.6049 55.1393H66.0061V59.369H78.6049V55.1393Z" fill="white"/>
<path d="M91.2188 59.369H104.402C104.776 58.0192 104.971 56.5943 104.971 55.1393H91.2188V59.369Z" fill="white"/>
<path d="M66.0061 79.3623H78.6049V83.592H66.0061V79.3623Z" fill="white"/>
<path d="M91.2188 79.3623V83.592H104.971C104.971 82.1369 104.776 80.7122 104.402 79.3623H91.2188Z" fill="white"/>
<path d="M57.6018 99.701L88.9266 99.7459C93.1214 99.7459 96.9114 98.126 99.7427 95.5162H57.6018V99.701Z" fill="white"/>
<path d="M108.027 95.5162H129.03V99.7308H108.027V95.5162Z" fill="white"/>
<path d="M108.027 87.4316H129.03V91.6611H108.027V87.4316Z" fill="white"/>
<path d="M116.417 79.3623H129.03V83.592H116.417V79.3623Z" fill="white"/>
<path d="M116.417 71.2933H129.03V75.5229H116.417V71.2933Z" fill="white"/>
<path d="M134.873 47.0699H108.027V51.2995H136.326L134.873 47.0699Z" fill="white"/>
<path d="M132.086 39.0002H108.027V43.2298H133.54L132.086 39.0002Z" fill="white"/>
<path d="M154.228 95.5162H175.246V99.7308H154.228V95.5162Z" fill="white"/>
<path d="M154.228 87.4316H175.246V91.6611H154.228V87.4316Z" fill="white"/>
<path d="M154.228 79.3623H166.842V83.592H154.228V79.3623Z" fill="white"/>
<path d="M154.228 71.2933H166.842V75.5229H154.228V71.2933Z" fill="white"/>
<path d="M154.228 67.4535H166.842V63.2238H154.228H142.813L141.629 66.6437L140.446 63.2238H129.03H116.417V67.4535H129.03V63.5688L130.364 67.4535H152.895L154.228 63.5688V67.4535Z" fill="white"/>
<path d="M166.842 55.1393H145.599L144.146 59.369H166.842V55.1393Z" fill="white"/>
<path d="M151.187 39.0003L149.733 43.23H175.246V39.0003H151.187Z" fill="white"/>
<path d="M141.629 99.701L143.082 95.5162H140.176L141.629 99.701Z" fill="white"/>
<path d="M138.843 91.6611H144.415L145.913 87.4316H137.359L138.843 91.6611Z" fill="white"/>
<path d="M136.011 83.592H147.247L148.73 79.3623H134.528L136.011 83.592Z" fill="white"/>
<path d="M133.195 75.5229H150.078L151.516 71.2933H131.741L133.195 75.5229Z" fill="white"/>
<path d="M116.417 59.369H139.112L137.659 55.1393H116.417V59.369Z" fill="white"/>
<path d="M146.947 51.2995H175.246V47.0699H148.385L146.947 51.2995Z" fill="white"/>
</svg>
