<svg width="26" height="26" viewBox="0 0 26 26" fill="none" xmlns="http://www.w3.org/2000/svg">
<path d="M9.45141 17.0098V9.45166H17.0095V17.0098H9.45141ZM11.7188 14.7424H14.7421V11.7191H11.7188V14.7424ZM9.0735 25.7307V23.0563H6.13745C5.37387 23.0563 4.72754 22.7918 4.19847 22.2627C3.6694 21.7336 3.40486 21.0873 3.40486 20.3237V17.3877H0.730469V15.1203H3.40486V11.3411H0.730469V9.07375H3.40486V6.13769C3.40486 5.37411 3.6694 4.72779 4.19847 4.19871C4.72754 3.66964 5.37387 3.4051 6.13745 3.4051H9.0735V0.730713H11.3409V3.4051H15.1201V0.730713H17.3874V3.4051H20.3235C21.0871 3.4051 21.7334 3.66964 22.2625 4.19871C22.7915 4.72779 23.0561 5.37411 23.0561 6.13769V9.07375H25.7305V11.3411H23.0561V15.1203H25.7305V17.3877H23.0561V20.3237C23.0561 21.0873 22.7915 21.7336 22.2625 22.2627C21.7334 22.7918 21.0871 23.0563 20.3235 23.0563H17.3874V25.7307H15.1201V23.0563H11.3409V25.7307H9.0735ZM20.3235 20.7889C20.4398 20.7889 20.5464 20.7405 20.6433 20.6436C20.7402 20.5466 20.7887 20.44 20.7887 20.3237V6.13769C20.7887 6.0214 20.7402 5.91479 20.6433 5.81787C20.5464 5.72097 20.4398 5.67252 20.3235 5.67252H6.13745C6.02115 5.67252 5.91454 5.72097 5.81762 5.81787C5.72073 5.91479 5.67228 6.0214 5.67228 6.13769V20.3237C5.67228 20.44 5.72073 20.5466 5.81762 20.6436C5.91454 20.7405 6.02115 20.7889 6.13745 20.7889H20.3235Z" fill="#1ABBA9"/>
</svg>
