<svg width="22" height="22" viewBox="0 0 22 22" fill="none" xmlns="http://www.w3.org/2000/svg">
<path d="M7.54543 10.1378L10.1378 7.52743L8.11875 5.49041L6.79897 6.81019L5.5669 5.57812L6.86871 4.25833L5.06998 2.45961L2.45964 5.06995L7.54543 10.1378ZM16.9188 19.5291L19.5291 16.9188L17.7304 15.1201L16.4106 16.4219L15.1786 15.1898L16.4804 13.87L14.4546 11.8622L11.8622 14.4546L16.9188 19.5291ZM5.49719 20.8309H1.16914V16.5028L6.29539 11.3766L0 5.06995L5.06998 0L11.4058 6.32459L16.2241 1.48838C16.4054 1.307 16.6048 1.17285 16.8221 1.08593C17.0395 0.998983 17.2665 0.95551 17.5034 0.95551C17.7402 0.95551 17.9673 0.998983 18.1846 1.08593C18.4019 1.17285 18.6013 1.307 18.7826 1.48838L20.5116 3.26907C20.693 3.45044 20.8253 3.64979 20.9085 3.86711C20.9916 4.08446 21.0332 4.31154 21.0332 4.54837C21.0332 4.78518 20.9916 5.00739 20.9085 5.21499C20.8253 5.42257 20.693 5.61704 20.5116 5.79842L15.7159 10.6234L22 16.93L16.93 22L10.6234 15.7046L5.49719 20.8309ZM2.92282 19.0772H4.75075L16.2196 7.62634L14.3737 5.78041L2.92282 17.2493V19.0772ZM15.3112 6.70675L14.3737 5.78041L16.2196 7.62634L15.3112 6.70675Z" fill="#1ABBA9"/>
</svg>
