<svg width="531" height="34" viewBox="0 0 531 34" fill="none" xmlns="http://www.w3.org/2000/svg">
<path d="M29.0938 31.1652C27.6145 31.9333 25.8793 32.5591 23.8881 33.0427C21.9253 33.5263 19.7776 33.768 17.445 33.768C15.0271 33.768 12.7941 33.384 10.7459 32.616C8.72624 31.8479 6.9768 30.767 5.4976 29.3731C4.04684 27.9792 2.90899 26.3151 2.08405 24.3808C1.25911 22.418 0.846636 20.2419 0.846636 17.8524C0.846636 15.4344 1.25911 13.2441 2.08405 11.2813C2.93744 9.31851 4.10373 7.6544 5.58294 6.28898C7.06214 4.89512 8.79736 3.82838 10.7886 3.08878C12.7798 2.34918 14.9275 1.97937 17.2317 1.97937C19.6212 1.97937 21.84 2.34918 23.8881 3.08878C25.9362 3.79993 27.6003 4.76711 28.8804 5.9903L24.2721 11.2386C23.561 10.4137 22.6222 9.7452 21.4559 9.23317C20.2896 8.69269 18.9669 8.42245 17.4877 8.42245C16.2076 8.42245 15.0271 8.66424 13.9461 9.14783C12.8652 9.60297 11.9264 10.2572 11.13 11.1106C10.3335 11.9356 9.70764 12.9312 9.2525 14.0975C8.82581 15.2353 8.61246 16.487 8.61246 17.8524C8.61246 19.2462 8.81158 20.5263 9.20983 21.6926C9.60808 22.8589 10.1912 23.8688 10.9593 24.7221C11.7558 25.5471 12.7229 26.2013 13.8608 26.6849C15.0271 27.1401 16.3498 27.3676 17.829 27.3676C18.6824 27.3676 19.4931 27.3108 20.2612 27.197C21.0292 27.0547 21.7404 26.8414 22.3947 26.5569V21.0526H16.6343V15.1642H29.0938V31.1652ZM48.2333 33V30.0558H48.148C47.8919 30.5394 47.5506 30.9945 47.1239 31.4212C46.7256 31.8479 46.2421 32.2177 45.6731 32.5306C45.1327 32.8435 44.5211 33.0996 43.8383 33.2987C43.1841 33.4978 42.4872 33.5974 41.7476 33.5974C40.3252 33.5974 39.1163 33.3414 38.1207 32.8293C37.1535 32.3173 36.357 31.663 35.7312 30.8665C35.1338 30.0416 34.6929 29.1171 34.4084 28.093C34.1524 27.0405 34.0244 25.9738 34.0244 24.8928V11.7507H41.0648V23.2714C41.0648 23.8688 41.1075 24.4377 41.1928 24.9782C41.2782 25.5186 41.4346 26.0022 41.6622 26.4289C41.9182 26.8556 42.2454 27.197 42.6436 27.453C43.0419 27.6806 43.5681 27.7943 44.2224 27.7943C45.4456 27.7943 46.3701 27.3392 46.9959 26.4289C47.6501 25.5186 47.9773 24.4519 47.9773 23.2287V11.7507H54.9751V33H48.2333ZM67.6162 4.96623C67.6162 5.50671 67.5024 6.01874 67.2748 6.50233C67.0757 6.95747 66.7912 7.35571 66.4214 7.69707C66.0801 8.03842 65.6534 8.30866 65.1414 8.50779C64.6578 8.70691 64.1457 8.80647 63.6053 8.80647C62.4674 8.80647 61.5145 8.43667 60.7464 7.69707C59.9784 6.92902 59.5943 6.01874 59.5943 4.96623C59.5943 4.4542 59.6939 3.97061 59.893 3.51547C60.0922 3.03189 60.3766 2.61942 60.7464 2.27806C61.1162 1.93671 61.5429 1.66647 62.0265 1.46734C62.5101 1.23977 63.0363 1.12599 63.6053 1.12599C64.1457 1.12599 64.6578 1.22555 65.1414 1.42468C65.6534 1.6238 66.0801 1.89404 66.4214 2.23539C66.7912 2.57675 67.0757 2.98922 67.2748 3.4728C67.5024 3.92794 67.6162 4.42575 67.6162 4.96623ZM60.1064 33V11.7507H67.1041V33H60.1064ZM88.3065 33V30.2265H88.2211C87.5384 31.3074 86.557 32.1466 85.277 32.744C84.0253 33.3129 82.6884 33.5974 81.266 33.5974C79.673 33.5974 78.2507 33.2845 76.9991 32.6586C75.7475 32.0328 74.6807 31.2079 73.7989 30.1838C72.9455 29.1313 72.2913 27.9223 71.8361 26.5569C71.381 25.1915 71.1534 23.7692 71.1534 22.29C71.1534 20.8108 71.381 19.4027 71.8361 18.0657C72.3197 16.7003 72.9882 15.5056 73.8416 14.4815C74.7234 13.4574 75.7759 12.6467 76.9991 12.0493C78.2507 11.452 79.6446 11.1533 81.1807 11.1533C82.7452 11.1533 84.068 11.452 85.149 12.0493C86.2299 12.6467 87.0691 13.301 87.6664 14.0121H87.7518V0.741964H94.7496V33H88.3065ZM88.0505 22.3327C88.0505 21.65 87.9225 20.9815 87.6664 20.3272C87.4389 19.6729 87.0975 19.0898 86.6424 18.5778C86.2157 18.0657 85.6894 17.6533 85.0636 17.3403C84.4378 17.0274 83.7266 16.871 82.9301 16.871C82.1052 16.871 81.3798 17.0274 80.754 17.3403C80.1282 17.6533 79.6019 18.0657 79.1752 18.5778C78.7485 19.0613 78.4214 19.6303 78.1938 20.2845C77.9947 20.9388 77.8952 21.6073 77.8952 22.29C77.8952 22.9727 77.9947 23.6554 78.1938 24.3381C78.4214 24.9924 78.7485 25.5755 79.1752 26.0876C79.6019 26.5996 80.1282 27.0121 80.754 27.325C81.3798 27.6379 82.1052 27.7943 82.9301 27.7943C83.7266 27.7943 84.4378 27.6379 85.0636 27.325C85.6894 27.0121 86.2157 26.5996 86.6424 26.0876C87.0975 25.5755 87.4389 24.9924 87.6664 24.3381C87.9225 23.6839 88.0505 23.0154 88.0505 22.3327ZM114.514 19.9432C114.514 18.8338 114.159 17.8808 113.447 17.0843C112.765 16.2878 111.726 15.8896 110.333 15.8896C109.65 15.8896 109.024 16.0034 108.455 16.2309C107.886 16.4301 107.388 16.7145 106.962 17.0843C106.535 17.4541 106.194 17.895 105.938 18.4071C105.682 18.8907 105.539 19.4027 105.511 19.9432H114.514ZM120.957 22.6313C120.957 22.9158 120.957 23.2003 120.957 23.4847C120.957 23.7692 120.943 24.0394 120.915 24.2955H105.511C105.568 24.8928 105.738 25.4333 106.023 25.9169C106.336 26.4005 106.72 26.8272 107.175 27.197C107.659 27.5383 108.185 27.8086 108.754 28.0077C109.351 28.2068 109.963 28.3064 110.589 28.3064C111.698 28.3064 112.637 28.1072 113.405 27.709C114.173 27.2823 114.799 26.7418 115.282 26.0876L120.146 29.1598C119.151 30.6105 117.828 31.7341 116.178 32.5306C114.557 33.2987 112.665 33.6827 110.503 33.6827C108.91 33.6827 107.403 33.4409 105.98 32.9573C104.558 32.4453 103.306 31.7199 102.225 30.7812C101.173 29.814 100.334 28.6335 99.7079 27.2396C99.1105 25.8458 98.8118 24.2528 98.8118 22.4607C98.8118 20.7254 99.1105 19.1609 99.7079 17.767C100.305 16.3447 101.116 15.15 102.14 14.1828C103.164 13.1872 104.373 12.4191 105.767 11.8787C107.161 11.3382 108.668 11.068 110.29 11.068C111.854 11.068 113.291 11.3382 114.599 11.8787C115.908 12.3907 117.032 13.1445 117.97 14.1401C118.909 15.1358 119.634 16.3447 120.146 17.767C120.687 19.1894 120.957 20.8108 120.957 22.6313ZM148.552 22.29C148.552 23.7692 148.324 25.1915 147.869 26.5569C147.414 27.9223 146.745 29.1313 145.863 30.1838C145.01 31.2079 143.958 32.0328 142.706 32.6586C141.454 33.2845 140.032 33.5974 138.439 33.5974C137.017 33.5974 135.665 33.3129 134.385 32.744C133.134 32.1466 132.167 31.3074 131.484 30.2265H131.399V33H124.955V0.741964H131.953V14.0121H132.039C132.636 13.301 133.475 12.6467 134.556 12.0493C135.637 11.452 136.96 11.1533 138.524 11.1533C140.06 11.1533 141.44 11.452 142.663 12.0493C143.915 12.6467 144.967 13.4574 145.821 14.4815C146.703 15.5056 147.371 16.7003 147.826 18.0657C148.31 19.4027 148.552 20.8108 148.552 22.29ZM141.81 22.29C141.81 21.6073 141.696 20.9388 141.469 20.2845C141.269 19.6303 140.956 19.0613 140.53 18.5778C140.103 18.0657 139.577 17.6533 138.951 17.3403C138.325 17.0274 137.6 16.871 136.775 16.871C135.978 16.871 135.267 17.0274 134.641 17.3403C134.016 17.6533 133.475 18.0657 133.02 18.5778C132.593 19.0898 132.252 19.6729 131.996 20.3272C131.768 20.9815 131.655 21.65 131.655 22.3327C131.655 23.0154 131.768 23.6839 131.996 24.3381C132.252 24.9924 132.593 25.5755 133.02 26.0876C133.475 26.5996 134.016 27.0121 134.641 27.325C135.267 27.6379 135.978 27.7943 136.775 27.7943C137.6 27.7943 138.325 27.6379 138.951 27.325C139.577 27.0121 140.103 26.5996 140.53 26.0876C140.956 25.5755 141.269 24.9924 141.469 24.3381C141.696 23.6554 141.81 22.9727 141.81 22.29ZM175.1 22.29C175.1 24.0252 174.787 25.604 174.161 27.0263C173.535 28.4202 172.682 29.6149 171.601 30.6105C170.52 31.5777 169.268 32.3315 167.846 32.872C166.424 33.4125 164.902 33.6827 163.28 33.6827C161.687 33.6827 160.165 33.4125 158.715 32.872C157.292 32.3315 156.041 31.5777 154.96 30.6105C153.907 29.6149 153.068 28.4202 152.442 27.0263C151.816 25.604 151.503 24.0252 151.503 22.29C151.503 20.5548 151.816 18.9902 152.442 17.5964C153.068 16.2025 153.907 15.022 154.96 14.0548C156.041 13.0876 157.292 12.348 158.715 11.836C160.165 11.324 161.687 11.068 163.28 11.068C164.902 11.068 166.424 11.324 167.846 11.836C169.268 12.348 170.52 13.0876 171.601 14.0548C172.682 15.022 173.535 16.2025 174.161 17.5964C174.787 18.9902 175.1 20.5548 175.1 22.29ZM168.358 22.29C168.358 21.6073 168.244 20.9388 168.017 20.2845C167.789 19.6303 167.462 19.0613 167.035 18.5778C166.608 18.0657 166.082 17.6533 165.456 17.3403C164.831 17.0274 164.105 16.871 163.28 16.871C162.455 16.871 161.73 17.0274 161.104 17.3403C160.478 17.6533 159.952 18.0657 159.525 18.5778C159.127 19.0613 158.814 19.6303 158.587 20.2845C158.387 20.9388 158.288 21.6073 158.288 22.29C158.288 22.9727 158.387 23.6412 158.587 24.2955C158.814 24.9497 159.141 25.5471 159.568 26.0876C159.995 26.5996 160.521 27.0121 161.147 27.325C161.773 27.6379 162.498 27.7943 163.323 27.7943C164.148 27.7943 164.873 27.6379 165.499 27.325C166.125 27.0121 166.651 26.5996 167.078 26.0876C167.504 25.5471 167.817 24.9497 168.017 24.2955C168.244 23.6412 168.358 22.9727 168.358 22.29ZM201.633 22.29C201.633 24.0252 201.32 25.604 200.694 27.0263C200.068 28.4202 199.215 29.6149 198.134 30.6105C197.053 31.5777 195.801 32.3315 194.379 32.872C192.957 33.4125 191.435 33.6827 189.814 33.6827C188.221 33.6827 186.699 33.4125 185.248 32.872C183.826 32.3315 182.574 31.5777 181.493 30.6105C180.441 29.6149 179.601 28.4202 178.976 27.0263C178.35 25.604 178.037 24.0252 178.037 22.29C178.037 20.5548 178.35 18.9902 178.976 17.5964C179.601 16.2025 180.441 15.022 181.493 14.0548C182.574 13.0876 183.826 12.348 185.248 11.836C186.699 11.324 188.221 11.068 189.814 11.068C191.435 11.068 192.957 11.324 194.379 11.836C195.801 12.348 197.053 13.0876 198.134 14.0548C199.215 15.022 200.068 16.2025 200.694 17.5964C201.32 18.9902 201.633 20.5548 201.633 22.29ZM194.891 22.29C194.891 21.6073 194.777 20.9388 194.55 20.2845C194.322 19.6303 193.995 19.0613 193.568 18.5778C193.142 18.0657 192.616 17.6533 191.99 17.3403C191.364 17.0274 190.639 16.871 189.814 16.871C188.989 16.871 188.263 17.0274 187.637 17.3403C187.012 17.6533 186.485 18.0657 186.059 18.5778C185.66 19.0613 185.347 19.6303 185.12 20.2845C184.921 20.9388 184.821 21.6073 184.821 22.29C184.821 22.9727 184.921 23.6412 185.12 24.2955C185.347 24.9497 185.675 25.5471 186.101 26.0876C186.528 26.5996 187.054 27.0121 187.68 27.325C188.306 27.6379 189.031 27.7943 189.856 27.7943C190.681 27.7943 191.407 27.6379 192.032 27.325C192.658 27.0121 193.184 26.5996 193.611 26.0876C194.038 25.5471 194.351 24.9497 194.55 24.2955C194.777 23.6412 194.891 22.9727 194.891 22.29ZM228.465 33H219.803L212.848 22.802H212.72V33H205.68V0.741964H212.72V20.3699H212.848L219.632 11.7507H228.124L219.931 21.3513L228.465 33ZM242.839 18.0231C242.27 17.4826 241.601 17.0274 240.833 16.6576C240.065 16.2878 239.255 16.1029 238.401 16.1029C237.747 16.1029 237.135 16.2309 236.567 16.487C236.026 16.743 235.756 17.1839 235.756 17.8097C235.756 18.4071 236.054 18.8338 236.652 19.0898C237.278 19.3458 238.273 19.6303 239.639 19.9432C240.435 20.1139 241.232 20.3556 242.028 20.6686C242.853 20.9815 243.593 21.3939 244.247 21.906C244.901 22.418 245.428 23.0438 245.826 23.7834C246.224 24.523 246.423 25.4049 246.423 26.4289C246.423 27.7659 246.153 28.9037 245.612 29.8425C245.072 30.7527 244.361 31.4923 243.479 32.0613C242.626 32.6302 241.658 33.0427 240.577 33.2987C239.496 33.5547 238.416 33.6827 237.335 33.6827C235.599 33.6827 233.893 33.4125 232.214 32.872C230.564 32.3031 229.185 31.4781 228.075 30.3972L232.001 26.2582C232.627 26.941 233.395 27.5099 234.305 27.965C235.215 28.4202 236.182 28.6477 237.207 28.6477C237.775 28.6477 238.33 28.5197 238.871 28.2637C239.44 27.9792 239.724 27.4957 239.724 26.8129C239.724 26.1587 239.383 25.6751 238.7 25.3622C238.017 25.0493 236.951 24.7221 235.5 24.3808C234.76 24.2101 234.021 23.9825 233.281 23.6981C232.541 23.4136 231.873 23.0296 231.276 22.546C230.707 22.0624 230.237 21.465 229.867 20.7539C229.498 20.0427 229.313 19.1894 229.313 18.1937C229.313 16.9137 229.583 15.8327 230.123 14.9509C230.664 14.0406 231.361 13.301 232.214 12.7321C233.068 12.1631 234.006 11.7507 235.03 11.4946C236.083 11.2102 237.121 11.068 238.145 11.068C239.738 11.068 241.289 11.324 242.796 11.836C244.332 12.3196 245.627 13.0592 246.679 14.0548L242.839 18.0231ZM281.996 33L279.137 30.0558C278.17 31.0799 276.975 31.9333 275.553 32.616C274.159 33.2702 272.409 33.5974 270.304 33.5974C268.939 33.5974 267.602 33.4125 266.293 33.0427C264.985 32.7013 263.819 32.1608 262.795 31.4212C261.799 30.6532 260.988 29.7145 260.362 28.6051C259.765 27.4672 259.466 26.1302 259.466 24.5941C259.466 23.5416 259.637 22.5745 259.978 21.6926C260.32 20.8108 260.775 20.0285 261.344 19.3458C261.941 18.6631 262.624 18.0657 263.392 17.5537C264.16 17.0417 264.956 16.6007 265.781 16.2309C264.843 15.3207 264.089 14.325 263.52 13.2441C262.951 12.1631 262.666 10.9684 262.666 9.65986C262.666 8.29444 262.951 7.12815 263.52 6.16097C264.089 5.1938 264.814 4.39731 265.696 3.77149C266.606 3.14567 267.616 2.69053 268.726 2.40607C269.863 2.12161 270.987 1.97937 272.096 1.97937C273.234 1.97937 274.358 2.13583 275.467 2.44874C276.577 2.7332 277.558 3.18834 278.411 3.81416C279.293 4.43997 279.99 5.23647 280.502 6.20364C281.043 7.17081 281.313 8.32289 281.313 9.65986C281.313 10.627 281.157 11.5089 280.844 12.3054C280.531 13.0734 280.09 13.7846 279.521 14.4388C278.98 15.0646 278.34 15.6336 277.601 16.1456C276.861 16.6576 276.079 17.127 275.254 17.5537L279.052 21.4366L282.081 16.7856H289.847L283.318 25.5329L290.828 33H281.996ZM275.041 9.87321C275.041 9.10516 274.785 8.4509 274.273 7.91042C273.761 7.36994 273.064 7.0997 272.182 7.0997C271.357 7.0997 270.66 7.36994 270.091 7.91042C269.55 8.42245 269.28 9.07671 269.28 9.87321C269.28 10.5844 269.465 11.2671 269.835 11.9213C270.233 12.5756 270.802 13.2014 271.542 13.7988C272.509 13.4005 273.334 12.8743 274.017 12.22C274.699 11.5658 275.041 10.7835 275.041 9.87321ZM269.664 20.2419C268.811 20.5832 268.057 21.0668 267.403 21.6926C266.777 22.29 266.464 23.1576 266.464 24.2955C266.464 24.8928 266.578 25.4333 266.805 25.9169C267.061 26.372 267.374 26.7703 267.744 27.1116C268.142 27.4245 268.583 27.6663 269.067 27.837C269.55 28.0077 270.048 28.093 270.56 28.093C271.499 28.093 272.338 27.8939 273.078 27.4957C273.817 27.0974 274.457 26.5285 274.998 25.7889L269.664 20.2419ZM311.022 9.01982V15.2495H322.713V21.2659H311.022V33H303.81V2.79009H323.694V9.01982H311.022ZM334.43 4.96623C334.43 5.50671 334.316 6.01874 334.088 6.50233C333.889 6.95747 333.605 7.35571 333.235 7.69707C332.894 8.03842 332.467 8.30866 331.955 8.50779C331.471 8.70691 330.959 8.80647 330.419 8.80647C329.281 8.80647 328.328 8.43667 327.56 7.69707C326.792 6.92902 326.408 6.01874 326.408 4.96623C326.408 4.4542 326.507 3.97061 326.707 3.51547C326.906 3.03189 327.19 2.61942 327.56 2.27806C327.93 1.93671 328.356 1.66647 328.84 1.46734C329.324 1.23977 329.85 1.12599 330.419 1.12599C330.959 1.12599 331.471 1.22555 331.955 1.42468C332.467 1.6238 332.894 1.89404 333.235 2.23539C333.605 2.57675 333.889 2.98922 334.088 3.4728C334.316 3.92794 334.43 4.42575 334.43 4.96623ZM326.92 33V11.7507H333.918V33H326.92ZM353.669 19.9432C353.669 18.8338 353.314 17.8808 352.602 17.0843C351.92 16.2878 350.881 15.8896 349.488 15.8896C348.805 15.8896 348.179 16.0034 347.61 16.2309C347.041 16.4301 346.543 16.7145 346.117 17.0843C345.69 17.4541 345.349 17.895 345.093 18.4071C344.837 18.8907 344.694 19.4027 344.666 19.9432H353.669ZM360.112 22.6313C360.112 22.9158 360.112 23.2003 360.112 23.4847C360.112 23.7692 360.098 24.0394 360.07 24.2955H344.666C344.723 24.8928 344.894 25.4333 345.178 25.9169C345.491 26.4005 345.875 26.8272 346.33 27.197C346.814 27.5383 347.34 27.8086 347.909 28.0077C348.506 28.2068 349.118 28.3064 349.744 28.3064C350.853 28.3064 351.792 28.1072 352.56 27.709C353.328 27.2823 353.954 26.7418 354.437 26.0876L359.302 29.1598C358.306 30.6105 356.983 31.7341 355.333 32.5306C353.712 33.2987 351.82 33.6827 349.658 33.6827C348.065 33.6827 346.558 33.4409 345.135 32.9573C343.713 32.4453 342.461 31.7199 341.38 30.7812C340.328 29.814 339.489 28.6335 338.863 27.2396C338.266 25.8458 337.967 24.2528 337.967 22.4607C337.967 20.7254 338.266 19.1609 338.863 17.767C339.46 16.3447 340.271 15.15 341.295 14.1828C342.319 13.1872 343.528 12.4191 344.922 11.8787C346.316 11.3382 347.824 11.068 349.445 11.068C351.01 11.068 352.446 11.3382 353.755 11.8787C355.063 12.3907 356.187 13.1445 357.125 14.1401C358.064 15.1358 358.79 16.3447 359.302 17.767C359.842 19.1894 360.112 20.8108 360.112 22.6313ZM364.111 33V0.741964H371.194V33H364.111ZM392.394 33V30.2265H392.309C391.626 31.3074 390.645 32.1466 389.364 32.744C388.113 33.3129 386.776 33.5974 385.354 33.5974C383.761 33.5974 382.338 33.2845 381.087 32.6586C379.835 32.0328 378.768 31.2079 377.886 30.1838C377.033 29.1313 376.379 27.9223 375.924 26.5569C375.468 25.1915 375.241 23.7692 375.241 22.29C375.241 20.8108 375.468 19.4027 375.924 18.0657C376.407 16.7003 377.076 15.5056 377.929 14.4815C378.811 13.4574 379.863 12.6467 381.087 12.0493C382.338 11.452 383.732 11.1533 385.268 11.1533C386.833 11.1533 388.156 11.452 389.236 12.0493C390.317 12.6467 391.157 13.301 391.754 14.0121H391.839V0.741964H398.837V33H392.394ZM392.138 22.3327C392.138 21.65 392.01 20.9815 391.754 20.3272C391.526 19.6729 391.185 19.0898 390.73 18.5778C390.303 18.0657 389.777 17.6533 389.151 17.3403C388.525 17.0274 387.814 16.871 387.018 16.871C386.193 16.871 385.467 17.0274 384.842 17.3403C384.216 17.6533 383.689 18.0657 383.263 18.5778C382.836 19.0613 382.509 19.6303 382.281 20.2845C382.082 20.9388 381.983 21.6073 381.983 22.29C381.983 22.9727 382.082 23.6554 382.281 24.3381C382.509 24.9924 382.836 25.5755 383.263 26.0876C383.689 26.5996 384.216 27.0121 384.842 27.325C385.467 27.6379 386.193 27.7943 387.018 27.7943C387.814 27.7943 388.525 27.6379 389.151 27.325C389.777 27.0121 390.303 26.5996 390.73 26.0876C391.185 25.5755 391.526 24.9924 391.754 24.3381C392.01 23.6839 392.138 23.0154 392.138 22.3327ZM433.792 33L421.631 13.2441H421.503L421.674 33H414.591V2.79009H422.911L435.029 22.5033H435.157L434.987 2.79009H442.07V33H433.792ZM470.02 22.29C470.02 24.0252 469.707 25.604 469.081 27.0263C468.455 28.4202 467.602 29.6149 466.521 30.6105C465.44 31.5777 464.188 32.3315 462.766 32.872C461.344 33.4125 459.822 33.6827 458.2 33.6827C456.608 33.6827 455.086 33.4125 453.635 32.872C452.213 32.3315 450.961 31.5777 449.88 30.6105C448.827 29.6149 447.988 28.4202 447.362 27.0263C446.737 25.604 446.424 24.0252 446.424 22.29C446.424 20.5548 446.737 18.9902 447.362 17.5964C447.988 16.2025 448.827 15.022 449.88 14.0548C450.961 13.0876 452.213 12.348 453.635 11.836C455.086 11.324 456.608 11.068 458.2 11.068C459.822 11.068 461.344 11.324 462.766 11.836C464.188 12.348 465.44 13.0876 466.521 14.0548C467.602 15.022 468.455 16.2025 469.081 17.5964C469.707 18.9902 470.02 20.5548 470.02 22.29ZM463.278 22.29C463.278 21.6073 463.164 20.9388 462.937 20.2845C462.709 19.6303 462.382 19.0613 461.955 18.5778C461.529 18.0657 461.002 17.6533 460.377 17.3403C459.751 17.0274 459.025 16.871 458.2 16.871C457.376 16.871 456.65 17.0274 456.024 17.3403C455.399 17.6533 454.872 18.0657 454.446 18.5778C454.047 19.0613 453.734 19.6303 453.507 20.2845C453.308 20.9388 453.208 21.6073 453.208 22.29C453.208 22.9727 453.308 23.6412 453.507 24.2955C453.734 24.9497 454.062 25.5471 454.488 26.0876C454.915 26.5996 455.441 27.0121 456.067 27.325C456.693 27.6379 457.418 27.7943 458.243 27.7943C459.068 27.7943 459.793 27.6379 460.419 27.325C461.045 27.0121 461.571 26.5996 461.998 26.0876C462.425 25.5471 462.738 24.9497 462.937 24.2955C463.164 23.6412 463.278 22.9727 463.278 22.29ZM481.619 16.999V25.1062C481.619 26.1018 481.804 26.8556 482.174 27.3676C482.572 27.8512 483.269 28.093 484.264 28.093C484.606 28.093 484.961 28.0646 485.331 28.0077C485.729 27.9508 486.057 27.8655 486.313 27.7517L486.398 32.872C485.914 33.0427 485.303 33.1849 484.563 33.2987C483.824 33.4409 483.084 33.512 482.344 33.512C480.922 33.512 479.727 33.3414 478.76 33C477.793 32.6302 477.011 32.1182 476.413 31.4639C475.844 30.7812 475.432 29.9847 475.176 29.0744C474.92 28.1357 474.792 27.0974 474.792 25.9596V16.999H471.378V11.7507H474.749V6.16097H481.619V11.7507H486.611V16.999H481.619ZM504.109 19.9432C504.109 18.8338 503.753 17.8808 503.042 17.0843C502.359 16.2878 501.321 15.8896 499.927 15.8896C499.244 15.8896 498.619 16.0034 498.05 16.2309C497.481 16.4301 496.983 16.7145 496.556 17.0843C496.13 17.4541 495.788 17.895 495.532 18.4071C495.276 18.8907 495.134 19.4027 495.105 19.9432H504.109ZM510.552 22.6313C510.552 22.9158 510.552 23.2003 510.552 23.4847C510.552 23.7692 510.538 24.0394 510.509 24.2955H495.105C495.162 24.8928 495.333 25.4333 495.618 25.9169C495.93 26.4005 496.314 26.8272 496.77 27.197C497.253 27.5383 497.779 27.8086 498.348 28.0077C498.946 28.2068 499.557 28.3064 500.183 28.3064C501.293 28.3064 502.231 28.1072 502.999 27.709C503.767 27.2823 504.393 26.7418 504.877 26.0876L509.741 29.1598C508.745 30.6105 507.423 31.7341 505.773 32.5306C504.151 33.2987 502.26 33.6827 500.098 33.6827C498.505 33.6827 496.997 33.4409 495.575 32.9573C494.153 32.4453 492.901 31.7199 491.82 30.7812C490.767 29.814 489.928 28.6335 489.302 27.2396C488.705 25.8458 488.406 24.2528 488.406 22.4607C488.406 20.7254 488.705 19.1609 489.302 17.767C489.9 16.3447 490.711 15.15 491.735 14.1828C492.759 13.1872 493.968 12.4191 495.361 11.8787C496.755 11.3382 498.263 11.068 499.884 11.068C501.449 11.068 502.886 11.3382 504.194 11.8787C505.503 12.3907 506.626 13.1445 507.565 14.1401C508.504 15.1358 509.229 16.3447 509.741 17.767C510.282 19.1894 510.552 20.8108 510.552 22.6313ZM526.967 18.0231C526.398 17.4826 525.729 17.0274 524.961 16.6576C524.193 16.2878 523.383 16.1029 522.529 16.1029C521.875 16.1029 521.263 16.2309 520.694 16.487C520.154 16.743 519.884 17.1839 519.884 17.8097C519.884 18.4071 520.182 18.8338 520.78 19.0898C521.406 19.3458 522.401 19.6303 523.767 19.9432C524.563 20.1139 525.36 20.3556 526.156 20.6686C526.981 20.9815 527.721 21.3939 528.375 21.906C529.029 22.418 529.555 23.0438 529.954 23.7834C530.352 24.523 530.551 25.4049 530.551 26.4289C530.551 27.7659 530.281 28.9037 529.74 29.8425C529.2 30.7527 528.489 31.4923 527.607 32.0613C526.754 32.6302 525.786 33.0427 524.705 33.2987C523.624 33.5547 522.543 33.6827 521.463 33.6827C519.727 33.6827 518.021 33.4125 516.342 32.872C514.692 32.3031 513.313 31.4781 512.203 30.3972L516.129 26.2582C516.755 26.941 517.523 27.5099 518.433 27.965C519.343 28.4202 520.31 28.6477 521.334 28.6477C521.903 28.6477 522.458 28.5197 522.999 28.2637C523.568 27.9792 523.852 27.4957 523.852 26.8129C523.852 26.1587 523.511 25.6751 522.828 25.3622C522.145 25.0493 521.078 24.7221 519.628 24.3808C518.888 24.2101 518.149 23.9825 517.409 23.6981C516.669 23.4136 516.001 23.0296 515.403 22.546C514.835 22.0624 514.365 21.465 513.995 20.7539C513.626 20.0427 513.441 19.1894 513.441 18.1937C513.441 16.9137 513.711 15.8327 514.251 14.9509C514.792 14.0406 515.489 13.301 516.342 12.7321C517.196 12.1631 518.134 11.7507 519.158 11.4946C520.211 11.2102 521.249 11.068 522.273 11.068C523.866 11.068 525.417 11.324 526.924 11.836C528.46 12.3196 529.755 13.0592 530.807 14.0548L526.967 18.0231Z" fill="white"/>
</svg>
