<svg version="1.1" id="Layer_1" xmlns="http://www.w3.org/2000/svg" x="0" y="0" viewBox="0 0 226.5 55.7" xml:space="preserve">
  <style type="text/css">
    .st0{fill:none}.st2{fill:#5d6771}
  </style>
  <path class="st0" d="M131.4 33.4c3.8-2 6.9-5 9.7-8 2.4-2.6 3.2-3.7 4.9-6.8.5-.4.9-1.5 1.3-1.9 1.6-2.8 5.6-11.2 3.1-12.5-2-1-4.8 2.7-5.8 4-.4.5-1.2 1.6-1.6 2.2-1.1 1.9-1.1 1.4-2.3 3.3 0-.1-1.9 2.4-1 1.3-3.8 5.9-7.9 11.6-10.1 19.6l1.8-1.2z"/>
  <path class="st0" d="M131.4 33.4c3.8-2 6.9-5 9.7-8 2.4-2.6 3.2-3.7 4.9-6.8.5-.4.9-1.5 1.3-1.9 1.6-2.8 5.6-11.2 3.1-12.5-2-1-4.8 2.7-5.8 4-.4.5-1.2 1.6-1.6 2.2-1.1 1.9-1.1 1.4-2.3 3.3 0-.1-1.9 2.4-1 1.3-3.8 5.9-7.9 11.6-10.1 19.6l1.8-1.2z"/>
  <path d="M198.6 43.7c-3.3 0-17.5-.1-21.7.3-7.6-.6-24.2 2.3-35.2 1.7-1.9-.1-3.6-.4-4.5-.5-3.9-.5-9.5-3.6-7.8-8 3.1-1.5 5.7-3.6 8.5-5.4 1.4-1.2 5-5.7 5.4-6.1.5-.5 2.9-3.4 3.3-4 4.4-6 11.3-20.7 2.3-19.2-1.5.8-3.3 1.6-4.2 2.8-.5.6-1.7 1.8-4.4 5.4-3.8 6-10.6 14.2-12.4 24.6-4.2 3.2-10.2 6.6-16.2 7.9-4 .7-3.4.7-6.7 1-9.4 1.2-21 .5-30.1.4-2.8 0-11.8-.1-14.7-.1-5.7 0-15.3.4-18.8.5-8.4.2-17.9-.7-25.6-.9-6-.1-11.6-.3-15.4-.4H0v1.9c3.8.1 12.1.2 19 .4.4 0 19.1.8 30 .2 9.9-.5 23.1.2 29.5.2h12.2c4-.1 9.9.2 13.8-.3 2.3-.3 5.2-.8 4.7-.7.3-.1 1.6-.4 2.1-.5 4.2-.5 15.7-6.4 15.7-6.8-1.3 6.8 6.1 8 9.1 8.9 6.9.8 7 .6 11.5.5 4.1-.1 17.4-1.5 19.1-1.5 6-.1 11.8-.8 18.1-.9.3-.1 20.9-.1 41.7 0v-1.6c-15 .1-27.8.1-27.9.2zm-57.9-29.9c1.3-1.8 1.2-1.3 2.3-3.3.4-.6 1.1-1.7 1.6-2.2 1-1.3 3.8-5.1 5.8-4 2.6 1.3-1.5 9.7-3.1 12.5-.5.4-.9 1.5-1.3 1.9-1.7 3.1-2.5 4.1-4.9 6.8-2.8 3-5.8 6-9.7 8l-1.9 1.2c2.2-7.9 6.3-13.6 10.1-19.6-.9 1.1 1.1-1.5 1.1-1.3z" fill="#fbd206"/>
  <path class="st2" d="M47.1 30.6c0 3.4-2.3 7.1-5.9 7.1-1.9 0-3.8-.9-5-2.2l1.5-7.1c1.6-1.7 3.7-2.7 5.5-2.7 2.4 0 3.9 1.9 3.9 4.9M44 21.9c-1.9 0-3.7.6-5.3 1.8l2.1-9.8h-4.3l-4.6 22-.1.2c-.3 1.3-.6 2.7-1.2 4.1l-.3.9h4.1l.2-.4c.2-.5.4-1.1.6-1.6 1.5 1.6 3.7 2.5 6.3 2.5 6.3 0 10.2-5.8 10.2-11.2-.1-4.9-3.3-8.5-7.7-8.5M67.5 23.2l-.2-.2c-.5-.7-1.7-1.1-3.1-1.1-1.9 0-3.3 1-4.4 2.2V22.4h-3.9v.6c0 1.4-.1 2.7-.5 4.3L52.5 41h4.3l2.6-12.2c1-1.1 2.9-2.9 4.6-2.9.6 0 1.5.2 1.9.6l.8.7.8-4z"/>
  <polygon class="st2" points="70.4,22.4 66.4,41.1 70.7,41.1 74.6,22.4"/>
  <path class="st2" d="M84.3 37.8c-2.4 0-4-1.9-4-4.9 0-3.5 2.2-7.1 5.9-7.2 2.1 0 4 1.1 5 2.3l-1.5 7.1c-1.5 1.7-3.5 2.7-5.4 2.7m13.1-15.4h-4.1l-.2.3c-.3.5-.5 1.1-.7 1.7-1.5-1.7-3.8-2.6-6.3-2.6H86c-5.6 0-10.2 5.1-10.2 11.2 0 4.9 3.2 8.5 7.7 8.5 1.8 0 3.5-.6 5.2-1.7l-1.6 5.9c-.5 2.4-2.4 3.8-5.2 3.8-2.4 0-4.8-.9-6.1-2.4l-.5-.6-2.4 3.1.4.4c2 2.1 5 3.2 8.4 3.2 4.9 0 8.6-2.7 9.5-7l4.4-18.8c.4-1.7.8-3.1 1.3-4.3l.5-.7zM110.2 21.9c-1.7 0-3.5.6-5.4 1.9l2.1-10h-4.3L96.8 41h4.3l2.7-12.7c1.3-1.3 3.1-2.7 5.4-2.7 1.5 0 3.1.6 3.1 2.5 0 .5-.1 1.2-.3 2L109.7 41h4.2l2.2-10.3c.2-1.1.4-1.8.4-2.7 0-3.5-2.6-6.1-6.3-6.1M128.6 17.2h-4.2l-1.2 5.3h-3.4L119 26h3.4l-2.1 9.9c-.1.6-.2 1.2-.2 1.6 0 2.7 1.8 4.3 4.7 4.3 1.3 0 3.2-.3 4.2-.8l.3-.2.2-3.7-.9.4c-.5.2-1.8.4-2.6.4-1.5 0-1.5-.8-1.5-1 0-.2.1-.6.2-1l2.1-9.9h5.2l.7-3.6h-5.2l1.1-5.2z"/>
  <polygon class="st2" points="139,13.8 133.2,41.1 136.2,41.1 142,13.8"/>
  <polygon class="st2" points="141.4,41.1 144.4,41.1 148.2,23.1 145.1,23.1"/>
  <path class="st2" d="M161.7 22.6c-2.5 0-4.8 1.2-6.3 2.3 0-.4 0-.9-.1-1.3l-.1-.6h-2.8l.1.7c.1 1.1 0 2.2-.2 3.4L149.4 41h3l2.7-12.8c1.5-1.3 3.7-2.8 6.1-2.8 2 0 4 1 4 3.1 0 .7-.2 1.7-.3 2.1L162.7 41h3.1l2.1-10.1v-.1c.2-.9.3-1.5.3-2.3 0-3.4-2.7-5.9-6.5-5.9M173.8 29.8c1.2-2.7 3.9-4.5 6.8-4.5 1.7 0 3.1.5 4.1 1.5.7.8 1.1 1.8 1.1 2.9h-12zm6.8-7.2c-5.7 0-10.5 4.8-10.5 10.5 0 5 3.6 8.4 8.7 8.4 2.9 0 5.5-.8 8-2.5l.5-.4-1.7-2.3-.5.3c-1.9 1.3-3.9 2-6 2-3.5 0-6-2.4-6-5.8v-.5h15.6l.1-.5c.1-.5.1-1 .1-1.5.1-4.6-3.2-7.7-8.3-7.7M73.3 20.6c1.4 0 2.5-1.1 2.5-2.5s-1.1-2.5-2.5-2.5-2.5 1.1-2.5 2.5c0 1.3 1.1 2.5 2.5 2.5M147.4 16.2c-1 0-1.8.8-1.8 1.8s.8 1.8 1.8 1.8 1.8-.8 1.8-1.8c0-.9-.8-1.8-1.8-1.8"/>
</svg>
