<svg width="48" height="48" viewBox="0 0 48 48" fill="none" xmlns="http://www.w3.org/2000/svg">
<mask id="mask0_304_17" style="mask-type:alpha" maskUnits="userSpaceOnUse" x="0" y="0" width="48" height="48">
<rect width="48" height="48" fill="#D9D9D9"/>
</mask>
<g mask="url(#mask0_304_17)">
<path d="M37.1667 39L26.2083 28.0417C25.375 28.7639 24.4033 29.3264 23.2934 29.7292C22.1834 30.1319 21.0023 30.3333 19.75 30.3333C16.7455 30.3333 14.2027 29.2917 12.1216 27.2083C10.0405 25.125 9 22.6111 9 19.6667C9 16.7222 10.0417 14.2083 12.125 12.125C14.2083 10.0417 16.7292 9 19.6875 9C22.6458 9 25.1597 10.0417 27.2292 12.125C29.2986 14.2083 30.3333 16.7243 30.3333 19.6729C30.3333 20.8632 30.1389 22.0139 29.75 23.125C29.3611 24.2361 28.7778 25.2778 28 26.25L39 37.1667L37.1667 39ZM19.7083 27.8333C21.9653 27.8333 23.8837 27.0347 25.4635 25.4375C27.0434 23.8403 27.8333 21.9167 27.8333 19.6667C27.8333 17.4167 27.0434 15.4931 25.4635 13.8958C23.8837 12.2986 21.9653 11.5 19.7083 11.5C17.4283 11.5 15.4902 12.2986 13.8941 13.8958C12.298 15.4931 11.5 17.4167 11.5 19.6667C11.5 21.9167 12.298 23.8403 13.8941 25.4375C15.4902 27.0347 17.4283 27.8333 19.7083 27.8333Z" fill="white"/>
</g>
</svg>
