<svg width="200" height="140" viewBox="0 0 200 140" fill="none" xmlns="http://www.w3.org/2000/svg">
<path d="M168 42V93H31V42H168ZM165.666 44.3393H33.3341V90.6623H165.666V44.3393Z" fill="white"/>
<path d="M68.0861 55.5981V79.3619L70 79.6079V81H60.5174V79.6079L62.5585 79.3619V68.5442H50.4404V79.3619L52.3116 79.6079V81H43V79.6079L44.8707 79.3619V55.5981L43 55.3521V54H52.3116V55.3521L50.4404 55.5981V65.7589H62.5585V55.5981L60.5174 55.3521V54H70V55.3521L68.0861 55.5981Z" fill="white"/>
<path d="M81.1567 79.466L83 79.7215V81H74V79.7215L75.8455 79.466V62.534L74 62.2801V61H81.1567V79.466Z" fill="white"/>
<path d="M86 79.8066L87.8005 79.5689V55.4301L86 55.1913V54H93.1564V79.5689L95 79.8066V81H86V79.8066Z" fill="white"/>
<path d="M105.058 61.8529H109.706V63.6712H105.058V75.2029C105.058 78.1789 105.689 79.13 108.437 79.13C109.453 79.13 110.342 79.13 111.186 78.9222V80.2448C108.692 81.1135 106.578 81.4854 104.803 81.4854C100.83 81.4854 99.8998 79.7086 99.8998 76.3176V63.6712H96.2651V61.8529H100.028V57.8031L105.058 56.3138V61.8529Z" fill="white"/>
<path d="M132.998 71.7308C132.998 77.7657 128.858 81.8156 122.347 81.8156C116.047 81.8156 112.031 79.1695 112.031 71.7308C112.031 65.4891 116.174 61.3149 122.684 61.3149C129.11 61.3149 132.998 65.0773 132.998 71.7308ZM127.335 71.6075C127.335 65.4891 125.475 62.8027 122.472 62.8027C119.557 62.8027 117.695 65.3658 117.695 71.6075C117.695 77.7657 119.557 80.3278 122.472 80.3278C125.602 80.3278 127.335 77.89 127.335 71.6075Z" fill="white"/>
<path d="M156.5 79.9968V81.237H147.834V79.9968L149.569 79.7497V68.7133C149.569 65.6549 148.428 64.2909 146.059 64.2909C144.96 64.2909 143.227 65.0343 141.96 65.9025V79.7497L143.734 79.9968V81.237H135.029V79.9968L136.802 79.7497V63.4637L135.029 63.2171V61.8531H141.96V64.5401C144.114 62.8451 146.187 61.4796 149.103 61.4796C152.991 61.4796 154.724 63.7128 154.724 68.0932V79.7497L156.5 79.9968Z" fill="white"/>
<path d="M80.5797 55.7279C80.5797 57.2348 79.3304 58.4558 77.7904 58.4558C76.2488 58.4558 75 57.2348 75 55.7279C75 54.221 76.2488 53 77.7904 53C79.3304 53 80.5797 54.221 80.5797 55.7279Z" fill="white"/>
<path d="M165.844 96.232H166.259C166.536 96.232 166.63 96.1538 166.63 95.959C166.63 95.7637 166.536 95.6901 166.259 95.6901H165.844V96.232ZM166.971 95.9393C166.971 96.2025 166.863 96.3693 166.62 96.4371L167.04 97.0525H166.66L166.279 96.4863C166.249 96.4863 166.22 96.491 166.175 96.491H165.844V97.0525H165.507V95.3923H166.249C166.759 95.3923 166.971 95.5627 166.971 95.9393ZM164.825 96.2372C164.825 96.994 165.453 97.6146 166.22 97.6146C166.982 97.6146 167.615 96.994 167.615 96.2372C167.615 95.4803 166.982 94.8603 166.22 94.8603C165.453 94.8603 164.825 95.4803 164.825 96.2372ZM168 96.2424C168 97.2142 167.204 98 166.22 98C165.235 98 164.439 97.2142 164.439 96.2424C164.439 95.2705 165.235 94.4837 166.22 94.4837C167.204 94.4837 168 95.2705 168 96.2424Z" fill="white"/>
</svg>
