<svg width="29" height="22" viewBox="0 0 29 22" fill="none" xmlns="http://www.w3.org/2000/svg">
<path d="M7.2 21.4728C5.19273 21.4728 3.49091 20.7746 2.09455 19.3783C0.698182 17.9819 0 16.2801 0 14.2728C0 12.571 0.529091 11.071 1.58727 9.7728C2.64545 8.47462 3.97091 7.64007 5.56364 7.26916C6.10909 5.30553 7.18909 3.69098 8.80364 2.42553C10.4182 1.16007 12.2836 0.527344 14.4 0.527344C16.9964 0.527344 19.1727 1.42734 20.9291 3.22734C22.6855 5.02734 23.5636 7.18189 23.5636 9.69098C25.2 9.86553 26.4818 10.5419 27.4091 11.7201C28.3364 12.8983 28.8 14.1746 28.8 15.5492C28.8 17.1855 28.2273 18.5819 27.0818 19.7383C25.9364 20.8946 24.5455 21.4728 22.9091 21.4728H7.2ZM7.2 18.8546H22.9091C23.8255 18.8546 24.6 18.5383 25.2327 17.9055C25.8655 17.2728 26.1818 16.4983 26.1818 15.5819C26.1818 14.6655 25.8655 13.891 25.2327 13.2583C24.6 12.6255 23.8255 12.3092 22.9091 12.3092H20.9455V9.69098C20.9455 7.88007 20.3073 6.33644 19.0309 5.06007C17.7545 3.78371 16.2109 3.14553 14.4 3.14553C13.0255 3.14553 11.8036 3.52189 10.7345 4.27462C9.66545 5.02734 8.88 5.9928 8.37818 7.17098C10.08 7.45462 11.5091 8.25644 12.6655 9.57644C13.8218 10.8964 14.4 12.4619 14.4 14.2728H11.7818C11.7818 13.0073 11.3345 11.9273 10.44 11.0328C9.54545 10.1383 8.46545 9.69098 7.2 9.69098C5.93455 9.69098 4.85455 10.1383 3.96 11.0328C3.06545 11.9273 2.61818 13.0073 2.61818 14.2728C2.61818 15.5383 3.06545 16.6183 3.96 17.5128C4.85455 18.4073 5.93455 18.8546 7.2 18.8546Z" fill="#1ABBA9"/>
</svg>
