<?xml version="1.0" encoding="UTF-8"?>
<svg width="200px" height="140px" viewBox="0 0 200 140" version="1.1" xmlns="http://www.w3.org/2000/svg" xmlns:xlink="http://www.w3.org/1999/xlink">
    <title>Fixed Logo/HBO</title>
    <defs>
        <filter color-interpolation-filters="auto" id="filter-1">
            <feColorMatrix in="SourceGraphic" type="matrix" values="0 0 0 0 1.000000 0 0 0 0 1.000000 0 0 0 0 1.000000 0 0 0 1.000000 0"></feColorMatrix>
        </filter>
        <filter color-interpolation-filters="auto" id="filter-2">
            <feColorMatrix in="SourceGraphic" type="matrix" values="0 0 0 0 0.847000 0 0 0 0 0.847000 0 0 0 0 0.847000 0 0 0 1.000000 0"></feColorMatrix>
        </filter>
    </defs>
    <g id="Fixed-Logo/HBO" stroke="none" stroke-width="1" fill="none" fill-rule="evenodd">
        <g filter="url(#filter-1)" id="HBO_black_0">
            <g transform="translate(42.014051, 46.231963)" id="Client-Logos/HBO-Dark" filter="url(#filter-2)">
                <g id="HBO_black_0" fill="#000000" fill-rule="nonzero">
                    <path d="M33.9210656,47.7006729 L21.2546212,47.7006729 L21.2546212,29.5015847 L13.0236649,29.5015847 L13.0236649,47.7006729 L0,47.7006729 L0,0.796114945 L13.0236649,0.796114945 L13.0236649,18.2468854 L21.2546212,18.2468854 L21.2546212,0.796114945 L33.9210656,0.796114945 L33.9210656,47.7006729 Z M91.9694007,47.9251682 C105.100387,47.8019961 115.679957,37.0633184 115.679957,23.8592687 C115.701038,12.7248661 108.045592,3.06234704 97.2476945,0.594568929 C86.4497971,-1.87320918 75.3928004,3.51272195 70.6254744,13.5624161 C70.6254744,7.71057116 64.8950618,0.796114945 58.1822928,0.78114859 L36.5704511,0.78114859 L36.5704511,47.6857065 L56.7236423,47.6857065 C64.8504093,47.6857065 70.6254744,40.6066204 70.6403586,34.5302801 C74.616256,42.7473808 82.8964678,47.972855 91.9842849,48 M55.0268449,28.843065 C56.9563395,29.1597319 58.3732395,30.8358468 58.3732395,32.8016661 C58.3732395,34.7674853 56.9563395,36.4436002 55.0268449,36.7602671 L48.6266438,36.7602671 L48.6266438,28.843065 L55.0268449,28.843065 Z M55.0268449,11.2276647 C56.9437726,11.5638288 58.3427908,13.2371444 58.3427908,15.1937489 C58.3427908,17.1503534 56.9437726,18.8236689 55.0268449,19.1598331 L48.641528,19.1598331 L48.641528,11.2276647 L55.0268449,11.2276647 Z M63.5554849,23.874235 C65.4022533,23.3519094 67.0640158,22.3140609 68.3481936,20.8809639 C68.0207449,23.0486313 68.0207449,25.2535939 68.3481936,27.4212613 C67.2075501,25.7035909 65.5077083,24.4388698 63.5406007,23.8443023 M80.0769341,23.8443023 C80.0769341,17.2317504 85.4080366,11.871218 91.9842849,11.871218 C98.5605331,11.871218 103.891636,17.2317504 103.891636,23.8443023 C103.891636,30.4568542 98.5605331,35.8173867 91.9842849,35.8173867 C85.4080366,35.8173867 80.0769341,30.4568542 80.0769341,23.8443023 M91.9842849,33.2282072 C97.1384194,33.2282072 101.316671,29.0268899 101.316671,23.8443023 C101.316671,18.6617148 97.1384194,14.4603975 91.9842849,14.4603975 C86.8301503,14.4603975 82.6518498,18.6617148 82.6518498,23.8443023 C82.6438231,26.3538901 83.6357934,28.7621636 85.4061915,30.5310859 C87.1765896,32.3000083 89.5778815,33.2821683 92.07359,33.2581399" id="Shape"></path>
                </g>
            </g>
        </g>
    </g>
</svg>