<svg width="304" height="57" viewBox="0 0 304 57" fill="none" xmlns="http://www.w3.org/2000/svg">
<path d="M163.135 34.5553L158.739 35.0844C154.922 35.5605 151.579 36.9361 151.579 40.1897C151.579 42.4911 153.553 44.0782 156.133 44.0782C159.16 44.0782 161.688 42.0678 163.241 40.0839V34.5553H163.135ZM163.188 48.6016V45.2951C161.609 47.1467 159.108 49.2894 154.659 49.2894C149.525 49.2894 145.287 46.0357 145.287 40.4542C145.287 33.6559 151.631 31.1959 157.792 30.5081L160.187 30.2436C162.53 30.0319 163.372 28.7093 163.372 27.1486C163.372 25.1911 161.556 23.7892 158.766 23.7892C155.58 23.7892 152.474 26.0905 151.342 27.9422L147.683 23.5775C149.92 20.6413 153.922 18.578 159.081 18.578C165.768 18.578 169.664 22.0433 169.664 27.8364V48.6016H163.162H163.188Z" fill="black"/>
<path d="M181.879 48.5751H175.429V19.2393H181.879V22.5458C184.169 20.4296 187.644 18.5515 191.408 18.5515C194.857 18.5515 199.569 20.5619 199.569 27.7041V48.5751H193.146V29.3706C193.146 26.4873 191.935 24.0007 188.96 24.0007C186.512 24.0007 183.353 26.0905 181.905 27.466V48.5487L181.879 48.5751Z" fill="black"/>
<path d="M222.209 19.2394H228.658V48.5752H221.998V45.4274C220.208 47.1203 217.338 49.263 213.574 49.263C209.81 49.263 204.571 47.2526 204.571 39.8988V19.2394H211.02V37.8091C211.02 41.2214 212.495 43.6022 215.522 43.6022C218.023 43.6022 220.392 41.9621 222.235 39.9253V19.2658L222.209 19.2394Z" fill="black"/>
<path d="M242.189 48.5752H235.74V9.98094L242.189 3.55298V48.5752Z" fill="black"/>
<path d="M256.01 48.5752H249.297V19.2394H256.01V48.5752ZM252.666 6.03955C254.851 6.03955 256.747 7.89123 256.747 10.1397C256.747 12.3882 254.878 14.2927 252.666 14.2927C250.455 14.2927 248.533 12.3882 248.533 10.1397C248.533 7.89123 250.429 6.03955 252.666 6.03955Z" fill="black"/>
<path d="M276.411 24.6092H270.278V48.6016H263.855V24.6092H259.932V19.2393H263.855V13.1817C263.855 8.34086 266.935 3.9762 273.016 3.9762C275.832 3.9762 278.202 4.76977 279.597 5.51044L277.57 10.5629C276.675 10.0338 275.332 9.50477 274.016 9.50477C271.963 9.50477 270.304 11.039 270.304 13.552V19.2393H277.938L276.411 24.6092Z" fill="black"/>
<path d="M297.234 30.6932C297.234 27.1221 294.997 23.7627 291.048 23.7627C287.099 23.7627 284.335 27.3338 284.23 30.6932H297.208H297.234ZM284.046 35.6398C284.098 40.3748 287.494 43.7343 291.522 43.7343C294.549 43.7343 297.708 41.6975 299.051 39.2109L303.079 42.9936C300.736 46.4589 296.181 49.2629 290.89 49.2629C282.571 49.2629 277.385 42.9407 277.385 33.894C277.385 24.8472 282.993 18.5515 291.101 18.5515C299.209 18.5515 304.29 23.6569 303.974 35.6398H284.046Z" fill="black"/>
<path d="M108.353 48.5752H101.351V7.86475H108.932L120.858 27.9158H120.963L132.835 7.86475H140.259V48.6016H133.178V19.7419H133.072L120.779 40.2426L108.432 19.7419H108.327V48.6016L108.353 48.5752Z" fill="black"/>
<path d="M40.5403 10.4042V56.22L50.6754 46.0357V0.219971L40.5403 10.4042Z" fill="#00AC5B"/>
<path d="M20.2702 56.22L30.4053 46.0357V0.219971L20.2702 10.4042V56.22Z" fill="#00AC5B"/>
<path d="M0 56.22L10.1351 46.0357V0.219971L0 10.4042V56.22Z" fill="#00AC5B"/>
</svg>
