<svg width="364" height="36" viewBox="0 0 364 36" fill="none" xmlns="http://www.w3.org/2000/svg">
<path d="M13.6334 8.94512H7.81358V17.7256H13.6334C17.4054 17.7256 19.022 16.3537 19.022 13.2805C19.022 10.2073 17.5132 8.94512 13.6334 8.94512ZM19.5609 35.2317L12.7173 23.872H7.81358V35.2317H0V2.30488H14.1722C22.4708 2.30488 26.7278 5.87195 26.7278 13.0061C26.7278 18.0549 24.4107 21.3476 20.3153 22.8841L28.6139 34.628V35.2317H19.5609Z" fill="white"/>
<path d="M39.9044 36C31.6058 36 26.7021 30.7866 26.7021 22.2256C26.7021 13.5549 31.7675 8.5061 39.9044 8.5061C47.8796 8.5061 52.9989 13.5549 52.9989 22.2256C52.9989 30.7866 48.0413 36 39.9044 36ZM39.8505 14.7622C35.809 14.7622 34.0308 17.4512 34.0308 22.1707C34.0308 26.8902 35.7012 29.6341 39.8505 29.6341C43.9459 29.6341 45.6703 26.8902 45.6703 22.1707C45.6703 17.4512 43.892 14.7622 39.8505 14.7622Z" fill="white"/>
<path d="M66.7446 36C58.4461 36 53.5424 30.7866 53.5424 22.2256C53.5424 13.5549 58.6077 8.5061 66.7446 8.5061C74.7199 8.5061 79.8391 13.5549 79.8391 22.2256C79.8391 30.7866 74.8815 36 66.7446 36ZM66.6908 14.7622C62.6492 14.7622 60.871 17.4512 60.871 22.1707C60.871 26.8902 62.5415 29.6341 66.6908 29.6341C70.7861 29.6341 72.5105 26.8902 72.5105 22.1707C72.5105 17.4512 70.7323 14.7622 66.6908 14.7622Z" fill="white"/>
<path d="M88.9506 20.7439V35.2317H81.622V9.21951H88.789V16.189H89.3278C90.7828 11.1402 93.8543 8.5061 97.8958 8.5061C102.422 8.5061 104.632 11.4146 104.955 16.2988H105.548C106.949 11.1951 109.859 8.5061 114.062 8.5061C119.073 8.5061 121.606 11.9634 121.606 17.6159V35.2317H114.224V19.7012C114.224 17.0671 113.038 15.2561 110.344 15.2561C107.218 15.2561 105.278 17.5061 105.278 20.7439V35.2317H97.9497V19.7012C97.9497 17.0671 96.7103 15.2561 94.0699 15.2561C90.9444 15.2561 88.9506 17.5061 88.9506 20.7439Z" fill="white"/>
<path d="M154.346 24.6951H140.12V35.2317H132.361V2.30488H155.747V9.54878H140.12V17.8354H154.346V24.6951Z" fill="white"/>
<path d="M169.159 36C160.86 36 155.957 30.7866 155.957 22.2256C155.957 13.5549 161.022 8.5061 169.159 8.5061C177.134 8.5061 182.253 13.5549 182.253 22.2256C182.253 30.7866 177.296 36 169.159 36ZM169.105 14.7622C165.064 14.7622 163.285 17.4512 163.285 22.1707C163.285 26.8902 164.956 29.6341 169.105 29.6341C173.2 29.6341 174.925 26.8902 174.925 22.1707C174.925 17.4512 173.147 14.7622 169.105 14.7622Z" fill="white"/>
<path d="M191.365 35.2317H184.036V9.21951H190.988V17.6707H191.58C193.197 10.4268 195.353 8.94512 198.694 8.94512H199.448V17.5061H197.939C192.82 17.5061 191.365 19.0427 191.365 23.6524V35.2317Z" fill="white"/>
<path d="M220.044 35.7805C212.661 35.7805 207.165 30.2378 207.165 19.2073C207.165 8.17683 212.499 1.59146 223.061 1.59146C231.899 1.59146 236.21 5.4878 237.503 12.8415L230.228 14.4329C229.258 10.5366 227.426 8.45122 223.007 8.45122C217.134 8.45122 214.978 12.4024 214.978 19.2073C214.978 25.5732 217.242 29.3598 223.223 29.3598C229.258 29.3598 230.767 26.2866 230.767 23.2134H223.007V17.3415H238.042V35.2317H230.929V28.0427H230.282C228.881 32.4329 225.81 35.7805 220.044 35.7805Z" fill="white"/>
<path d="M248.152 35.2317H240.824V9.21951H247.775V17.6707H248.368C249.984 10.4268 252.14 8.94512 255.481 8.94512H256.235V17.5061H254.726C249.607 17.5061 248.152 19.0427 248.152 23.6524V35.2317Z" fill="white"/>
<path d="M269.523 36C261.224 36 256.321 30.7866 256.321 22.2256C256.321 13.5549 261.386 8.5061 269.523 8.5061C277.498 8.5061 282.618 13.5549 282.618 22.2256C282.618 30.7866 277.66 36 269.523 36ZM269.469 14.7622C265.428 14.7622 263.649 17.4512 263.649 22.1707C263.649 26.8902 265.32 29.6341 269.469 29.6341C273.565 29.6341 275.289 26.8902 275.289 22.1707C275.289 17.4512 273.511 14.7622 269.469 14.7622Z" fill="white"/>
<path d="M306.177 9.21951L308.279 19.4817C308.979 22.7195 309.572 26.0122 310.111 29.5244H311.027C311.62 26.1768 312.32 22.9939 313.021 19.4268L314.961 9.21951H322.181L315.122 35.2317H305.53L303.375 24.0366C302.836 21.0732 302.351 18 301.974 14.872H301.058C300.681 17.9451 300.142 21.128 299.657 24.0366L297.663 35.2317H288.34L281.227 9.21951H288.772L291.035 19.4268C291.843 22.9939 292.544 26.122 293.082 29.5244H294.052C294.591 26.0671 295.184 22.7195 295.831 19.4817L297.932 9.21951H306.177Z" fill="white"/>
<path d="M324.376 27.0549V15.1463H321.25V9.21951H324.376V2.52439H331.704V9.21951H338.44V15.1463H331.704V25.8476C331.704 27.9329 332.459 28.9756 334.668 28.9756C335.8 28.9756 337.039 28.6463 338.009 28.3171L338.817 35.0122C336.877 35.6159 335.584 36 332.782 36C326.854 36 324.376 31.9939 324.376 27.0549Z" fill="white"/>
<path d="M347.672 20.7439V35.2317H340.344V0H347.672V16.189H348.103C349.612 11.1951 352.576 8.5061 356.725 8.5061C361.575 8.5061 364 11.9634 364 17.6159V35.2317H356.671V19.7012C356.671 17.0671 355.432 15.2561 352.792 15.2561C349.666 15.2561 347.672 17.5061 347.672 20.7439Z" fill="white"/>
</svg>
