<svg width="34" height="34" viewBox="0 0 34 34" fill="none" xmlns="http://www.w3.org/2000/svg">
<path d="M7.7775 26.223L20.1025 20.1455L26.18 7.82049L13.855 13.898L7.7775 26.223ZM17 18.7005C16.5183 18.7005 16.1146 18.5376 15.7887 18.2117C15.4629 17.8859 15.3 17.4822 15.3 17.0005C15.3 16.5188 15.4629 16.1151 15.7887 15.7892C16.1146 15.4634 16.5183 15.3005 17 15.3005C17.4817 15.3005 17.8854 15.4634 18.2113 15.7892C18.5371 16.1151 18.7 16.5188 18.7 17.0005C18.7 17.4822 18.5371 17.8859 18.2113 18.2117C17.8854 18.5376 17.4817 18.7005 17 18.7005ZM17 34.0005C14.6767 34.0005 12.4808 33.5542 10.4125 32.6617C8.34417 31.7692 6.53792 30.5509 4.99375 29.0067C3.44958 27.4626 2.23125 25.6563 1.33875 23.588C0.44625 21.5197 0 19.3238 0 17.0005C0 14.6488 0.44625 12.4388 1.33875 10.3705C2.23125 8.30215 3.44958 6.50299 4.99375 4.97299C6.53792 3.44299 8.34417 2.23174 10.4125 1.33924C12.4808 0.446738 14.6767 0.000488281 17 0.000488281C19.3517 0.000488281 21.5617 0.446738 23.63 1.33924C25.6983 2.23174 27.4975 3.44299 29.0275 4.97299C30.5575 6.50299 31.7688 8.30215 32.6613 10.3705C33.5537 12.4388 34 14.6488 34 17.0005C34 19.3238 33.5537 21.5197 32.6613 23.588C31.7688 25.6563 30.5575 27.4626 29.0275 29.0067C27.4975 30.5509 25.6983 31.7692 23.63 32.6617C21.5617 33.5542 19.3517 34.0005 17 34.0005ZM17 31.4505C21.0233 31.4505 24.4375 30.0409 27.2425 27.2217C30.0475 24.4026 31.45 20.9955 31.45 17.0005C31.45 12.9772 30.0475 9.56299 27.2425 6.75799C24.4375 3.95299 21.0233 2.55049 17 2.55049C13.005 2.55049 9.59792 3.95299 6.77875 6.75799C3.95958 9.56299 2.55 12.9772 2.55 17.0005C2.55 20.9955 3.95958 24.4026 6.77875 27.2217C9.59792 30.0409 13.005 31.4505 17 31.4505Z" fill="#1ABBA9"/>
</svg>
