<svg width="200" height="140" viewBox="0 0 200 140" fill="none" xmlns="http://www.w3.org/2000/svg">
<path d="M37.2629 57.462L45.0175 67.0892L42.2483 79.143L31.0127 84.4659L19.7763 79.143L17.0071 67.1676L24.8401 57.462H37.2629ZM31.0127 53L17.4026 59.4965L14 74.1339L23.4158 85.8749H38.5286L47.9454 74.1339L44.5427 59.4965L31.0127 53ZM32.8325 70.0639C34.1775 70.0639 34.9703 69.9855 35.3647 69.5943C35.5626 69.3801 35.675 69.1019 35.681 68.8118C35.6888 68.6666 35.6645 68.5213 35.6099 68.3862C35.5552 68.2512 35.4717 68.1294 35.3647 68.0294C35.0486 67.7165 34.3361 67.6382 32.8325 67.6382H27.2139V70.0648L32.8325 70.0639ZM38.8458 75.4652H34.7306L30.7741 72.1778H27.293V75.4687H24.3653V65.2107H32.9108C35.9972 65.2107 37.1044 65.6019 37.817 66.3068C38.3793 66.958 38.6629 67.8003 38.6079 68.655C38.6326 69.0844 38.5681 69.5143 38.4184 69.9182C38.2687 70.3221 38.0371 70.6912 37.7377 71.0032C37.1837 71.5512 36.3126 71.9425 34.5729 72.0993L38.8458 75.4652Z" fill="white"/>
<path d="M90.0566 78.4892H109.903V74.968H94.3434V72.408H105.537V69.1263H94.3434V66.5663H109.903V63.0451H90.0566V78.4892ZM170 74.968V63.0451H165.633V78.4892H185.562V74.968H170ZM153.884 63.0451H147.45L139.035 78.4892H143.719L145.386 75.3679H155.705L157.373 78.4892H162.217L153.884 63.0451ZM147.136 72.0873L150.55 65.6016L153.963 72.0873H147.136ZM76.2434 70.3271C78.2283 70.3271 79.4186 70.1668 79.9744 69.6065C80.2803 69.2829 80.4508 68.8531 80.4508 68.4062C80.4508 67.9592 80.2803 67.5294 79.9744 67.2058C79.4982 66.7258 78.5446 66.6456 76.2434 66.6456H67.9083V70.3262H76.2444L76.2434 70.3271ZM85.0558 78.4892L78.9432 78.5694L73.0684 73.6077H67.9083V78.5694H63.542V63.0451H76.1648C80.7689 63.0451 82.3569 63.6054 83.4686 64.726C84.3129 65.6942 84.7414 66.9607 84.6599 68.2472C84.6979 68.8904 84.605 69.5347 84.3865 70.1402C84.1682 70.7459 83.829 71.3 83.39 71.7684C82.5169 72.6484 81.2453 73.2096 78.6268 73.4492L85.0558 78.4892ZM122.768 75.0482C120.942 75.0482 120.148 74.7284 119.513 74.2483C119.047 73.8129 118.684 73.2777 118.451 72.6823C118.217 72.0867 118.119 71.446 118.164 70.8072C118.119 70.1685 118.217 69.5278 118.451 68.9322C118.684 68.3367 119.047 67.8016 119.513 67.3662C120.149 66.8861 120.943 66.5663 122.768 66.5663H135.311V63.0451H122.764C119.113 63.0451 117.684 63.4451 116.33 64.5656C115.464 65.3261 114.785 66.2777 114.344 67.3465C113.903 68.4153 113.713 69.5723 113.789 70.727C113.713 71.8819 113.903 73.0388 114.344 74.1076C114.785 75.1764 115.464 76.128 116.33 76.8885C117.679 78.0892 119.108 78.409 122.764 78.409H135.308V69.1309H124.59V72.4115H130.941V74.9725H122.764L122.768 75.0482Z" fill="white"/>
</svg>
