<svg width="200" height="140" viewBox="0 0 200 140" fill="none" xmlns="http://www.w3.org/2000/svg">
<path fill-rule="evenodd" clip-rule="evenodd" d="M99.6095 98.424C111.609 98.424 123.225 96.8682 133.204 93.9284C143.036 91.0293 150.791 86.9403 155.63 82.1026C159.34 78.393 161.22 74.3917 161.22 70.2116C161.22 66.0316 159.34 62.031 155.63 58.3214C150.791 53.4829 143.036 49.394 133.204 46.4956C123.226 43.5544 111.609 42 99.6095 42C83.3414 42 68.0233 44.829 56.4787 49.9654C44.5625 55.2666 38 62.4573 38 70.2116C38 74.3917 39.8811 78.393 43.5907 82.1026C48.4292 86.9403 56.1835 91.0293 66.0167 93.9284C75.9944 96.8682 87.6112 98.424 99.6095 98.424Z" fill="black"/>
<path fill-rule="evenodd" clip-rule="evenodd" d="M40.8848 70.2116C40.8848 66.8238 42.4812 63.5096 45.6306 60.3609C55.0327 50.9596 76.2205 44.8844 99.6105 44.8844C123.001 44.8844 144.19 50.9596 153.591 60.3609C156.741 63.5096 158.338 66.8245 158.338 70.2116C158.338 83.9402 131.445 95.5388 99.6112 95.5388C76.2219 95.5388 55.0334 89.4643 45.6313 80.0623C42.4812 76.9143 40.8848 73.5987 40.8848 70.2116Z" fill="white"/>
<path fill-rule="evenodd" clip-rule="evenodd" d="M59.0026 79.045C62.0679 80.9689 64.9516 80.7277 64.9516 80.7277C73.8453 80.7277 74.1454 73.5167 74.1454 73.577C74.3256 70.633 72.523 68.89 71.3213 68.0487C70.1196 67.2073 65.312 65.2246 65.312 65.2246C63.3286 64.4435 63.3286 62.5807 63.3286 62.5807C63.3286 58.1342 68.0758 57.9533 68.0758 57.9533C73.1842 58.0129 73.7872 64.1189 74.0851 64.8635C74.3256 65.4644 74.8059 64.8039 74.8059 64.8039C74.8059 64.8039 77.4498 57.0516 77.8109 56.211C78.1713 55.3696 77.21 55.6101 77.21 55.6101C75.7075 56.6317 73.424 57.4127 73.424 57.4127C71.4405 55.6697 68.256 55.73 68.256 55.73C68.256 55.73 59.0615 55.9102 59.0615 64.1434C59.0615 64.1434 59.1218 68.17 63.1484 69.4916C67.9552 71.2935 69.518 72.9769 69.518 74.2389C69.518 75.5002 68.4958 78.5648 65.1311 78.5648C65.1311 78.5648 58.3408 77.9653 58.3408 70.5734C58.3408 70.5734 58.1606 69.6718 57.9201 70.3925C57.6796 71.114 54.5547 79.9481 54.5547 79.9481C54.5547 79.9481 54.3746 80.7284 55.2755 80.3687C56.1764 80.0091 58.6423 78.8655 59.0026 79.045ZM130.233 79.2736C130.233 79.2736 130.108 79.8156 130.734 79.5653C131.362 79.315 133.073 78.522 133.325 78.6461C135.454 79.9824 137.459 79.8156 137.459 79.8156C144.842 79.8043 144.54 74.8937 144.54 74.9351C144.594 74.1695 144.45 73.4029 144.122 72.709C143.794 72.015 143.293 71.417 142.668 70.9723C141.833 70.3883 137.679 68.9503 137.679 68.9503C136.302 68.407 136.602 67.323 136.602 67.323C136.783 64.8032 139.751 64.888 139.751 64.888C143.302 64.9301 143.983 68.8178 144.109 69.3605C144.234 69.9031 144.61 69.3184 144.61 69.3184C144.61 69.3184 146.657 63.2692 146.908 62.6851C147.158 62.1004 146.49 62.2673 146.49 62.2673C145.446 62.9775 143.708 63.8504 143.708 63.8504C141.939 62.7293 139.155 62.8015 139.155 62.8015C139.155 62.8015 133.124 63.0469 133.124 68.7687C133.124 68.7687 133.167 71.5662 135.965 72.4868C139.307 73.7383 141.019 74.5474 140.993 75.7855C140.975 76.6633 140.043 77.8314 137.704 77.8314C137.704 77.8314 133.826 77.6533 132.865 72.7567C132.865 72.7567 132.495 72.1348 132.316 72.6761C132.135 73.2166 130.233 79.2736 130.233 79.2736Z" fill="black"/>
<path fill-rule="evenodd" clip-rule="evenodd" d="M85.143 63.1212C84.4229 63.1556 75.288 64.9841 75.288 74.6588C75.288 74.6588 75.1078 80.368 82.0784 80.368C82.0784 80.368 86.3447 80.5475 89.1695 76.0407C89.1695 76.0407 89.5902 75.3207 88.929 75.3207C88.929 75.3207 86.7654 77.8447 83.0999 77.8447C83.0999 77.8447 79.7948 78.1448 79.7948 74.3595C79.7948 70.5734 82.6792 65.2246 85.143 65.2246C87.6067 65.2246 89.0489 67.7486 88.9893 70.633C88.9893 70.633 88.9893 70.9934 89.2901 70.9934C89.5902 70.9934 89.6505 70.6933 89.8902 70.0321C90.1307 69.371 92.1142 63.8427 92.1142 63.8427C92.1142 63.8427 92.354 63.1815 91.8737 63.1815C91.3927 63.1815 89.7108 64.2633 89.7108 64.2633C89.7108 64.2633 89.5299 64.623 88.5679 64.0824C87.6067 63.5419 86.405 63.0609 85.143 63.1212Z" fill="black"/>
<path fill-rule="evenodd" clip-rule="evenodd" d="M100.225 63.3014C98.7242 63.3357 90.4307 64.8039 90.4307 74.4779C90.4307 74.4779 90.6817 79.7882 97.0331 80.1114C99.7633 80.1444 107.497 77.363 107.557 69.7307C107.619 61.7989 100.225 63.3014 100.225 63.3014Z" fill="black"/>
<path fill-rule="evenodd" clip-rule="evenodd" d="M101.308 65.104C99.6263 65.0142 95.5991 67.7479 94.7578 74.9582C94.7578 74.9582 94.2768 78.0831 97.2818 78.0831C100.286 78.0831 103.051 71.1133 103.051 67.7472C103.051 67.7479 103.289 65.2091 101.308 65.104Z" fill="white"/>
<path fill-rule="evenodd" clip-rule="evenodd" d="M120.417 63.6015H116.617C117.082 62.0513 117.413 60.9576 117.413 60.9576C117.413 60.9576 117.592 60.3567 117.111 60.417L109.24 65.6453C109.24 65.6453 108.938 66.0659 109.78 66.0659H110.981C110.981 66.0659 111.283 66.3064 111.102 66.9669C110.921 67.628 108.999 74.058 108.878 74.8397C108.759 75.6201 108.397 79.7062 112.724 79.7062C112.724 79.7062 117.412 80.0666 119.093 76.4018C119.093 76.4018 119.455 75.4995 118.793 75.9798C118.132 76.4621 117.772 77.2425 115.548 77.2425C113.325 77.2425 113.205 75.2597 113.625 73.6969C113.855 72.8394 114.971 69.0962 115.931 65.8864C117.089 65.8892 119.227 65.8949 119.574 65.8843C120.325 65.8619 120.385 65.4111 120.385 65.4111C120.385 65.4111 120.595 64.3818 120.655 64.0215C120.716 63.6618 120.417 63.6015 120.417 63.6015ZM132.044 63.6015H128.246L129.04 60.9576C129.04 60.9576 129.221 60.3567 128.74 60.417L120.867 65.6453C120.867 65.6453 120.567 66.0659 121.408 66.0659H122.609C122.609 66.0659 122.91 66.3064 122.729 66.9669C122.55 67.628 120.626 74.058 120.507 74.8397C120.386 75.6201 120.026 79.7062 124.352 79.7062C124.352 79.7062 129.039 80.0666 130.722 76.4018C130.722 76.4018 131.082 75.4995 130.421 75.9798C129.761 76.4621 129.399 77.2425 127.176 77.2425C124.952 77.2425 124.832 75.2597 125.254 73.6969C125.484 72.8394 126.599 69.0962 127.559 65.8864C128.717 65.8892 130.855 65.8949 131.202 65.8843C131.952 65.8619 132.013 65.4111 132.013 65.4111C132.013 65.4111 132.224 64.3818 132.284 64.0215C132.345 63.6618 132.044 63.6015 132.044 63.6015ZM144.56 79.5225C144.56 78.1546 145.671 77.1436 146.982 77.1436C148.282 77.1436 149.393 78.1539 149.393 79.5225C149.393 80.9044 148.282 81.9147 146.982 81.9147C145.671 81.9147 144.56 80.9044 144.56 79.5225Z" fill="black"/>
<path fill-rule="evenodd" clip-rule="evenodd" d="M146.982 81.5165C148.061 81.5165 148.913 80.6716 148.913 79.5225C148.913 78.3944 148.061 77.5425 146.982 77.5425C145.891 77.5425 145.04 78.3944 145.04 79.5225C145.04 80.6716 145.891 81.5165 146.982 81.5165Z" fill="white"/>
<path fill-rule="evenodd" clip-rule="evenodd" d="M146.48 80.9044H146.063V78.1546H147.11C147.76 78.1546 148.082 78.3944 148.082 78.9364C148.082 79.4279 147.773 79.6431 147.368 79.6936L148.151 80.9044H147.684L146.959 79.7132H146.479V80.9044H146.48Z" fill="black"/>
<path fill-rule="evenodd" clip-rule="evenodd" d="M146.978 79.3598C147.331 79.3598 147.646 79.3339 147.646 78.9118C147.646 78.5711 147.337 78.508 147.047 78.508H146.479V79.3598H146.978Z" fill="white"/>
</svg>
