<svg width="561" height="179" viewBox="0 0 561 179" fill="none" xmlns="http://www.w3.org/2000/svg">
<path d="M99.7938 177.785V148.787H106.153V177.785L99.7938 177.785ZM138.667 177.785L124.628 159.357V177.794H118.351V148.787H124.215L137.759 166.645V148.787H144.037V177.785L138.667 177.785ZM166.91 154.669V177.785H160.55V154.669H151.753V148.787H175.707V154.669H166.91ZM183.404 177.785V148.787H205.214V154.458H189.691V160.23H203.317V165.901H189.691V172.105H205.388V177.776L183.404 177.785ZM233.494 177.785L227.262 168.511H222.268V177.794H215.908V148.787H229.095C235.913 148.787 240 152.39 240 158.355V158.437C240.19 162.491 237.653 166.172 233.805 167.426L240.87 177.785H233.494ZM233.622 158.686C233.622 155.928 231.725 154.54 228.628 154.54H222.305V162.868H228.719C231.817 162.868 233.595 161.213 233.595 158.768L233.622 158.686ZM270.809 177.785L256.806 159.347V177.785H250.529V148.787H256.394L269.938 166.645V148.787H276.215V177.785L270.809 177.785ZM307.922 177.785L305.283 171.278H293.031L290.392 177.785H283.904L296.293 148.575H302.158L314.548 177.785H307.922ZM299.143 156.25L295.304 165.653H302.983L299.143 156.25ZM331.217 154.678V177.794H324.857V154.669H316.06V148.787H340.014V154.669L331.217 154.678ZM348.39 177.794V148.787H354.749V177.785L348.39 177.794ZM380.041 178.29C371.134 178.309 364.719 171.618 364.719 163.373V163.29C364.719 155.018 371.207 148.29 380.124 148.29C389.04 148.29 395.446 154.963 395.446 163.208V163.29C395.455 171.535 388.976 178.309 380.05 178.309L380.041 178.29ZM388.793 163.29C388.96 158.425 385.163 154.345 380.312 154.178C380.222 154.175 380.132 154.173 380.041 154.173C374.919 154.173 371.363 158.235 371.363 163.208V163.29C371.196 168.155 374.993 172.235 379.844 172.403C379.934 172.406 380.024 172.408 380.115 172.408C385.237 172.408 388.793 168.346 388.793 163.373V163.29ZM426.117 177.785L412.115 159.347V177.785H405.865V148.787H411.73L425.274 166.645V148.787H431.551V177.785L426.117 177.785ZM463.23 177.785L460.591 171.278H448.394L445.755 177.785H439.267L451.656 148.575H457.521L469.911 177.785H463.23ZM454.525 156.25L450.685 165.653H458.364L454.525 156.25ZM477.095 177.794V148.787H483.455V171.985H497.869V177.785L477.095 177.794Z" fill="#C5003E"/>
<path d="M299.418 56.1764C296.041 54.402 292.306 53.4214 288.495 53.3088C280.889 53.3088 276.582 58.8235 275.455 60.6617V119.779H252.389V36.921H273.521L274.841 45.5975C275.757 44.09 281.255 35.1379 292.16 35.1379C294.631 35.1702 297.08 35.5951 299.418 36.3971V56.1764H299.418ZM354.154 36.397C351.816 35.5953 349.366 35.1703 346.896 35.1378C335.982 35.1378 330.52 44.09 329.576 45.5973L328.257 36.9209H307.125V119.788H330.19V60.6617C331.354 58.7775 335.615 53.3087 343.23 53.3087C347.041 53.4214 350.776 54.4021 354.154 56.1764L354.154 36.397ZM238.259 60.7076V119.788H217.091L215.771 111.149C214.314 112.564 207.524 121.572 193.53 121.572C180.335 121.572 171.226 111.461 171.226 97.8492C171.226 68.5294 205.7 64.4025 215.212 63.4374V61.0845C215.212 56.2867 211.198 51.3051 200.55 51.3051C189.297 51.3051 180.628 57.5459 179.07 58.658V41.5716C188.061 37.2486 197.92 35.0477 207.89 35.1378C229.095 35.1195 238.259 44.8345 238.259 60.7076ZM215.194 79.6323C207.863 79.6323 194.474 82.1599 194.474 93.7592C194.474 99.6415 198.488 103.869 203.519 103.869C210.062 103.869 215.194 99.1635 215.194 88.5661L215.194 79.6323ZM88.614 12.3529L109.352 56.9853L101.214 74.4485L66.6209 0L40.2658 12.3254L60.9851 56.8933C59.3631 60.3676 56.7606 66.0201 52.5453 75.0183C43.0699 95.34 35.7388 101.029 22.7537 101.029C19.1827 100.965 15.6469 100.31 12.2887 99.09L0 125.505C6.22502 128.105 12.8865 129.493 19.6289 129.596C34.9966 129.596 46.2864 119.577 56.1009 98.4558L68.1971 72.4448L90.1902 119.816H122.264L108.371 89.9448L116.509 72.4816L138.502 119.853H170.575L114.969 0L88.614 12.3529ZM549.123 36.9302V9.51287L526.057 20.3033V36.9302H518.671V51.3419H526.066V119.798H549.132V51.3326H560.825V36.9209L549.123 36.9302ZM362.786 119.798H385.851V36.9209H362.786V119.798ZM500.142 9.50366L477.077 20.2941V36.9209H469.682V51.3327H477.077V119.789H500.142V51.3326H511.844V36.9209H500.142V9.50366ZM464.293 71.5349V85.1653C464.293 104.917 454.671 121.581 431.038 121.581C407.404 121.581 397.782 105.037 397.782 85.1653V71.544C397.782 51.7095 407.404 35.1286 431.038 35.1286C454.671 35.1286 464.293 51.7922 464.293 71.544V71.5349ZM441.045 68.2537C441.045 58.3456 438.644 51.3143 431.038 51.3143C423.432 51.3143 421.031 58.3456 421.031 68.2537V88.4742C421.031 98.3823 423.386 105.414 431.038 105.414C438.69 105.414 441.045 98.3823 441.045 88.4742V68.2537Z" fill="#C5003E"/>
</svg>
